<?xml version="1.0" encoding="UTF-8"?>
<svg version="1.1" viewBox="0 0 2048 541" width="1280" height="1280" xmlns="http://www.w3.org/2000/svg">
<path transform="translate(1384,143)" d="m0 0h14l21 2 25 6 20 8 17 9 14 10 13 11 12 12 13 17 11 19 8 19 6 21 3 19 1 13v11l-3 27-5 20-8 20-9 17-10 14-11 13-11 11-14 11-18 11-17 8-18 6-18 4-16 2h-27l-21-3-19-5-20-8-15-8-12-8-11-9-12-11-9-11-8-10-10-17-7-15-7-21-4-21-1-9v-28l3-21 6-22 9-21 8-14 10-14 12-14 7-7 14-11 10-7 16-9 19-8 23-6 13-2zm3 56-17 2-18 5-17 8-14 10-10 9-10 11-10 15-7 16-5 17-2 16v14l3 19 6 18 9 17 10 13 12 12 14 10 15 8 18 6 19 3h16l19-3 18-6 14-7 14-10 12-11 12-16 9-17 5-15 3-15v-27l-4-19-6-16-9-16-8-10-9-10-14-11-14-8-14-6-15-4-18-2z" fill="#090808"/>
<path transform="translate(1721,149)" d="m0 0h121l18 2 16 5 16 8 11 7 13 12 10 13 8 15 5 15 3 16v19l-3 17-6 16-9 15-9 11-8 8-15 11-13 7h-2l13 25 12 22 14 26 13 24 14 26 4 7v2h-67l-10-19-20-40-10-19-23-46h-59l-1 124h-57v-283l20-45zm37 55v100h81l12-3 10-5 10-9 6-7 5-11 2-8v-16l-4-12-6-10-9-9-12-7-11-3z" fill="#090707"/>
<path transform="translate(428,148)" d="m0 0h28l16 35 13 29 19 42 16 35 27 60 17 37 13 29 16 35 9 20 3 9-41 1h-19l-8-16-16-35-8-18-144-1-1 5-18 40-10 23-1 1h-61l2-6 16-35 15-33 16-35 16-36 15-32 30-66 16-35 16-36zm13 103-8 16-17 38-13 29-11 25v1h98l-1-5-16-36-19-42-11-25z" fill="#090707"/>
<path transform="translate(732)" d="m0 0h25l16 4 17 8 12 9 11 11 7 11 6 12 4 14 1 6v23l-3 14-6 15-8 12-9 10-9 8-16 9h-3v324l-4-2-10-8-11-9-13-11-11-9-14-11-1-2-1-271-14-7-13-10-10-11-8-13-6-16-2-9-1-9v-10l2-14 6-18 8-14 11-13 13-10 16-8zm8 58-10 4-7 6-6 12v13l4 9 6 7 10 5 11 1 10-3 9-7 5-9 1-3v-13l-6-12-7-6-10-4z" fill="#CD1B32"/>
<path transform="translate(24,148)" d="m0 0h200v53h-83v278l-39 1h-18l-2-2v-277h-82l2-6 11-24 9-21z" fill="#0C0B0B"/>
<path transform="translate(959,148)" d="m0 0h34l1 1v277l133 1v52l-45 1h-145l-2-1v-286l8-16 13-24z" fill="#0E0C0C"/>
<path transform="translate(2017,149)" d="m0 0 13 2 8 5 6 7 4 9v13l-5 10-5 6-6 4-6 2h-15l-8-3-7-6-6-12-1-9 3-12 7-9 8-5zm0 6-8 2-6 4-5 6-2 6v13l6 9 7 5 3 1h14l10-6 4-6 2-8-1-10-5-8-6-5-4-2z" fill="#231D1D"/>
<path transform="translate(2010,164)" d="m0 0h12l7 3 2 3v8l-4 6 4 6v2l-5-1-5-6h-7l-1 7-4-1-1-2v-24zm4 5-1 1v9l6 1 6-2 1-1-1-7-2-1z" fill="#352B2C"/>
</svg>
