<svg width="180" height="106" viewBox="0 0 2556 926" fill="none" xmlns="http://www.w3.org/2000/svg">
<g clip-path="url(#clip0_4314_902)">
<path d="M2557 589.532C2552.35 598.599 2544.97 601.148 2535.49 601.113C2474.33 600.892 2413.16 601.421 2352 600.788C2328.35 600.543 2305.36 595.157 2283.29 586.11C2263.3 577.91 2245.16 566.791 2230.11 551.382C2211.47 532.294 2198.95 509.732 2193.8 483.136C2191.2 469.711 2190.15 456.256 2191.17 442.823C2193.19 416.303 2202.65 392.279 2219.2 371.451C2239.08 346.429 2265.04 329.986 2295.57 321.182C2308.59 317.425 2322.1 314.969 2335.56 313.203C2347.95 311.576 2360.59 310.786 2373.07 311.193C2395.6 311.926 2417.65 315.862 2438.53 324.908C2445.18 327.794 2451.76 330.87 2459.05 334.167C2458.46 320.702 2455.32 308.648 2446.83 298.339C2433.58 282.238 2415.68 274.534 2395.72 272.242C2379.35 270.361 2362.67 269.507 2346.23 270.3C2325.97 271.276 2305.71 273.865 2286.36 280.814C2285.5 281.121 2284.44 280.853 2283.33 280.853C2277.89 251.429 2272.46 222.093 2266.84 191.69C2280.06 188.793 2293.17 185.134 2306.53 183.201C2321.77 180.997 2337.21 180.168 2352.59 179.059C2361.83 178.393 2371.13 177.716 2380.36 178.11C2415.96 179.628 2450.45 186.115 2482.04 203.59C2511.3 219.78 2533.88 242.401 2547.11 273.567C2551.74 284.487 2555.22 295.761 2556.62 307.836C2557 401.688 2557 495.375 2557 589.532ZM2415.41 400.997C2396 393.112 2375.72 392.018 2355.46 395.234C2334.58 398.55 2315.95 407.406 2301.8 423.795C2294.44 432.324 2289.77 442.29 2289.04 453.697C2287.77 473.497 2297.86 488.015 2312.34 499.532C2329.69 513.333 2350.43 519.107 2372.22 519.822C2396.03 520.604 2419.88 520.127 2443.71 519.906C2449.28 519.854 2454.99 518.377 2457.6 512.723C2459.64 508.307 2461.72 503.397 2461.79 498.677C2462.02 483.428 2461.58 468.154 2460.93 452.91C2460.3 438.38 2453.22 426.498 2442.51 417.514C2434.66 410.928 2425.04 406.458 2415.41 400.997Z" fill="#004A8F"/>
<path d="M1808.26 293.757C1796.98 282.446 1783.46 277.487 1768.04 276.984C1752.79 276.487 1738.13 278.497 1724.45 285.872C1705.77 295.942 1695.26 311.994 1691.19 332.231C1689.39 341.178 1689.11 350.539 1689.09 359.714C1688.93 438.208 1689 516.702 1689 595.195C1689 596.985 1689 598.775 1689 600.779C1654.3 600.779 1620.02 600.779 1585.37 600.779C1585.37 460.16 1585.37 319.437 1585.37 178.357C1619.54 178.357 1653.94 178.357 1688.76 178.357C1688.76 185.585 1688.76 192.99 1688.76 200.627C1695.65 197.207 1702.06 193.866 1708.6 190.821C1720.72 185.18 1733.47 181.302 1746.74 180.141C1761.53 178.848 1776.49 177.421 1791.25 178.273C1817.83 179.806 1842.57 187.807 1863.5 205.09C1871.31 211.546 1878.59 218.657 1887.06 226.335C1888.28 224.876 1889.86 222.77 1891.65 220.875C1910.64 200.86 1934.34 189.541 1960.77 182.94C1982.47 177.519 2004.57 176.912 2026.57 178.255C2050.52 179.717 2073.66 185.76 2094.86 197.474C2118.55 210.557 2137.32 228.753 2150.85 252.365C2161.39 270.749 2167.41 290.611 2170.85 311.298C2172.25 319.692 2172.9 328.306 2172.91 336.822C2173.06 422.648 2173 508.475 2173 594.301C2173 596.294 2173 598.287 2173 600.64C2138.8 600.64 2104.73 600.64 2070 600.64C2070 598.895 2070 596.972 2070 595.049C2070 513.388 2070.23 431.727 2069.82 350.069C2069.73 332.103 2066.51 314.468 2055.11 299.413C2046 287.378 2034.24 280.122 2019.27 277.976C2005.78 276.043 1992.61 276.791 1979.44 280.741C1957.65 287.278 1943.38 301.247 1936.01 322.55C1932.51 332.664 1930.96 343.073 1930.97 353.797C1931.03 434.124 1931 514.451 1931 594.778C1931 596.606 1931 598.434 1931 600.631C1896.48 600.631 1862.09 600.631 1827 600.631C1827 598.914 1827 596.993 1827 595.073C1827 510.413 1827.27 425.751 1826.78 341.094C1826.68 323.603 1821.02 307.215 1808.26 293.757Z" fill="#004A8F"/>
<path d="M1397.35 599.304C1380.07 600.027 1363.12 601.593 1346.3 600.737C1322.57 599.53 1299.31 594.537 1277.08 585.888C1257.81 578.391 1239.98 568.244 1223.71 555.319C1206.04 541.294 1191.33 524.756 1179.27 505.771C1165.52 484.106 1156.32 460.669 1150.87 435.566C1146.62 415.933 1145.12 396.133 1146.14 376.223C1147.35 352.595 1152.33 329.647 1160.83 307.453C1168.09 288.507 1178.13 271.183 1190.44 255.208C1205.19 236.073 1223.38 220.741 1243.88 207.939C1264.04 195.34 1285.97 187.322 1308.96 182.164C1326.36 178.259 1344.14 177.638 1361.99 177.927C1389.02 178.364 1414.92 183.713 1439.78 194.319C1459.09 202.557 1476.4 213.739 1492.24 227.58C1514.91 247.402 1531.51 271.458 1544.14 298.535C1552.32 316.054 1557.74 334.507 1561.79 353.291C1564.12 364.098 1565.04 375.262 1565.92 386.318C1567.13 401.614 1567.7 416.96 1568.57 432.721C1464.41 432.721 1361 432.721 1255.95 432.721C1261.16 442.128 1265.11 451.041 1270.61 458.865C1284.26 478.294 1302.99 491.038 1325.6 498.263C1342.28 503.592 1359.42 505.213 1376.67 503.801C1393.95 502.387 1410.25 496.898 1425.38 488.251C1426.07 487.857 1426.89 487.691 1427.72 487.396C1431.7 521.486 1435.67 555.475 1439.8 590.867C1425.94 593.569 1411.84 596.317 1397.35 599.304ZM1345.5 343C1381.26 343 1417.02 343 1452.77 343C1452.86 342.097 1453.1 341.533 1452.94 341.122C1448 328.474 1441.61 316.677 1432.21 306.733C1414.19 287.67 1391.62 277.572 1365.9 275.22C1349.24 273.696 1332.57 275.121 1316.43 280.828C1286.05 291.578 1266.93 312.939 1256.25 343C1285.9 343 1315.2 343 1345.5 343Z" fill="#004A8F"/>
<path d="M989.002 490.972C986.349 495.394 983.748 499.446 980.825 504C983.392 504 985.185 504 986.979 504C1041.31 504 1095.65 504.024 1149.98 503.945C1153.55 503.94 1155.21 504.524 1156.19 508.665C1162.03 533.201 1168.41 557.607 1174.53 582.074C1176.06 588.18 1177.35 594.349 1178.8 600.74C1069.7 600.74 960.622 600.74 851.131 600.74C849.097 590.023 847.052 579.226 844.998 568.431C843.119 558.558 841.142 548.701 839.444 538.797C839.183 537.273 839.826 535.307 840.671 533.925C856.394 508.235 872.18 482.583 888.016 456.962C902.407 433.679 916.932 410.478 931.293 387.176C946.249 362.911 961.064 338.558 975.971 314.263C983.339 302.257 990.781 290.297 998.172 278.305C998.744 277.376 999.178 276.362 999.871 275.007C952.799 275.007 906.194 275.007 859.43 275.007C851.436 242.73 843.49 210.649 835.404 178C837.965 178 839.606 178 841.247 178C920.08 178 998.915 177.766 1077.75 178.182C1095.18 178.274 1111.54 183.482 1124.09 196.689C1130.94 203.909 1134.81 212.552 1136.14 222.671C1138.52 240.839 1132.42 256.408 1123.18 271.361C1110.4 292.026 1097.78 312.786 1085.12 333.522C1073.22 353.005 1061.38 372.521 1049.48 392.003C1036.9 412.593 1024.3 433.163 1011.69 453.735C1004.16 466.031 996.601 478.313 989.002 490.972Z" fill="#004A8F"/>
<path d="M567.04 270.888C601.702 270.925 636.365 270.893 671.028 271.033C685.502 271.092 697.939 276.776 709.14 285.617C722.873 296.457 730.986 310.88 733.602 327.781C735.548 340.353 734.314 353.043 729.441 365.313C723.534 380.186 712.537 390.252 700.146 399.359C681.331 413.188 662.584 427.109 643.148 440.877C642.224 440.56 641.932 440.386 641.699 440.152C586.888 385.362 532.074 330.576 477.326 275.723C476.161 274.557 475.76 272.628 475.471 271.022C506.305 270.956 536.672 270.922 567.04 270.888Z" fill="#FFF200"/>
<path d="M324.002 270.166C340.663 270.108 357.325 270.049 374.712 270.258C377.294 270.699 379.15 270.873 381.04 271.386C382.201 273.136 383.205 274.668 384.472 275.937C451.026 342.53 517.595 409.106 584.207 475.641C585.937 477.369 588.154 478.609 589.967 480.366C579.207 488.443 568.624 496.23 557.672 504.007C555.559 502.854 553.555 501.972 552.108 500.53C523.108 471.633 494.176 442.666 465.208 413.736C463.811 412.34 462.206 411.151 460.913 409.596C462.539 408.368 463.95 407.41 465.362 406.452C464.966 405.929 464.571 405.405 464.175 404.882C461.113 404.882 458.051 404.882 454.987 404.524C453.814 402.434 452.885 400.458 451.434 399.004C410.241 357.723 368.989 316.502 327.787 275.23C326.313 273.754 325.254 271.863 324.002 270.166Z" fill="#FFDF00"/>
<path d="M391.27 220.002C396.829 203.74 401.757 187.227 408.098 171.275C417.366 147.96 435.258 134.999 459.942 130.94C475.48 128.384 490.185 130.45 503.896 138.108C518.66 146.354 529.383 158.298 534.923 174.469C540.023 189.357 544.913 204.316 549.395 219.623C496.353 220.002 443.811 220.002 391.27 220.002Z" fill="#FBAF17"/>
<path d="M651.056 524.976C654.453 535.189 657.568 545.507 661.324 555.586C665.133 565.806 666.256 576.282 666.012 587.048C665.44 612.251 647.586 635.143 625.3 643.999C614.522 648.283 603.303 650.196 591.956 648.858C567.464 645.97 545.654 631.414 536.076 606.368C534.617 602.551 533.432 598.629 532.543 594.376C534.831 593.397 536.89 593.125 538.53 592.148C557.582 580.807 576.549 569.323 595.582 557.949C614.048 546.914 632.563 535.963 651.056 524.976Z" fill="#FCAF18"/>
<path d="M323.538 270.096C325.254 271.863 326.313 273.753 327.786 275.229C368.988 316.501 410.241 357.723 451.434 399.004C452.885 400.458 453.814 402.433 454.661 404.771C438.539 405.534 422.742 405.692 406.551 405.78C403.106 405.454 400.056 405.199 396.967 404.594C395.403 402.114 394.139 399.72 392.312 397.889C351.498 356.974 310.615 316.128 269.786 275.229C268.313 273.753 267.255 271.864 266.004 270.167C285.027 270.12 304.05 270.073 323.538 270.096Z" fill="#FFD801"/>
<path d="M475.004 271.054C475.762 272.627 476.163 274.556 477.327 275.723C532.075 330.576 586.889 385.362 641.7 440.152C641.933 440.385 642.225 440.56 642.798 440.906C638.282 444.984 633.457 448.918 627.977 452.989C624.234 455.154 621.148 457.183 618.008 458.857C616.692 457.224 615.438 455.938 614.168 454.669C554.656 395.154 495.134 335.647 435.678 276.075C434.396 274.79 433.879 272.742 433.473 271.022C447.628 271.014 461.316 271.034 475.004 271.054Z" fill="#FFEC00"/>
<path d="M265.551 270.097C267.255 271.864 268.313 273.753 269.786 275.229C310.615 316.128 351.498 356.974 392.312 397.889C394.139 399.72 395.403 402.114 396.499 404.626C378.381 404.987 360.694 404.967 342.968 404.607C341.686 402.743 340.563 401.1 339.181 399.715C302.411 362.901 265.598 326.128 228.861 289.28C226.792 287.205 225.301 284.555 223.541 282.172C231.626 275.863 240.94 272.482 250.965 271.058C255.631 270.395 260.384 270.351 265.551 270.097Z" fill="#FFD205"/>
<path d="M223.173 282.153C225.3 284.555 226.791 287.206 228.86 289.281C265.597 326.128 302.409 362.901 339.18 399.716C340.562 401.1 341.685 402.743 342.506 404.636C337.709 405.372 333.335 405.738 328.962 406.104C314.617 406.06 300.272 406.016 285.422 405.569C284.243 404.244 283.678 403.212 282.88 402.413C255.545 375.039 228.194 347.681 200.805 320.362C199.803 319.363 198.388 318.779 197.166 318.001C200.58 304.309 208.397 293.568 219.343 284.924C220.506 284.006 221.651 283.065 223.173 282.153Z" fill="#FECA09"/>
<path d="M513.057 538.824C505.264 544.488 497.47 550.153 489.219 555.654C487.505 554.159 486.284 552.795 484.991 551.501C456.727 523.225 428.414 494.997 400.262 466.609C397.949 464.277 396.719 460.87 395.176 457.696C397.247 455.975 399.129 454.519 401.32 452.912C407.76 448.201 413.891 443.641 420.319 438.932C422.415 437.569 424.215 436.356 426.052 435.485C427.627 437.953 428.911 440.329 430.739 442.164C459.175 470.708 487.686 499.178 516.159 527.684C517.558 529.085 518.779 530.665 519.911 532.444C517.513 534.758 515.285 536.791 513.057 538.824Z" fill="#FFD005"/>
<path d="M438.106 594.048C430.819 599.682 423.54 605.326 416.239 610.941C413.935 612.713 411.571 614.407 408.605 616.063C406.191 614.033 404.478 612.003 402.608 610.13C374.176 581.666 345.704 553.243 317.329 524.723C315.82 523.206 315.088 520.916 314.121 518.715C314.836 517.641 315.423 516.837 316.331 515.998C317.444 515.311 318.237 514.661 319.247 513.907C319.734 513.609 319.916 513.352 320.357 512.988C328.136 507.628 335.568 502.313 343.004 497.363C344.157 499.47 345.047 501.467 346.49 502.914C375.733 532.259 405.037 561.544 434.346 590.823C435.511 591.987 436.849 592.977 438.106 594.048Z" fill="#F6BD0D"/>
<path d="M438.458 594.018C436.85 592.977 435.512 591.986 434.347 590.823C405.038 561.543 375.734 532.258 346.491 502.914C345.048 501.466 344.157 499.469 343.191 497.087C352.252 489.974 361.131 483.501 370.011 477.393C371.168 479.497 372.07 481.49 373.516 482.941C402.453 511.977 431.463 540.939 460.404 569.97C461.866 571.436 462.841 573.388 464.043 575.113C455.632 581.405 447.221 587.697 438.458 594.018Z" fill="#FAC50B"/>
<path d="M313.994 518.986C315.088 520.916 315.821 523.206 317.33 524.723C345.705 553.243 374.177 581.666 402.608 610.13C404.479 612.003 406.192 614.033 408.306 616.205C399.648 623.2 390.662 629.98 381.331 636.437C379.768 634.018 378.925 631.543 377.264 629.892C369.03 621.71 360.469 613.857 352.227 605.681C334.058 587.658 315.926 569.594 297.993 551.336C294.792 548.076 292.624 543.802 290.117 539.687C296.252 530.349 305.322 524.899 313.994 518.986Z" fill="#F1B60F"/>
<path d="M464.356 574.967C462.842 573.388 461.866 571.437 460.405 569.971C431.463 540.94 402.453 511.977 373.517 482.941C372.071 481.49 371.169 479.497 370.168 477.092C378.544 470.272 386.766 464.117 394.988 457.962C396.721 460.87 397.95 464.277 400.263 466.609C428.415 494.997 456.729 523.225 484.993 551.501C486.285 552.795 487.507 554.159 488.904 555.8C480.92 562.346 472.794 568.583 464.356 574.967Z" fill="#FECA09"/>
<path d="M196.983 318.355C198.389 318.779 199.804 319.363 200.805 320.362C228.195 347.681 255.546 375.04 282.881 402.413C283.679 403.212 284.243 404.244 284.959 405.501C268.89 405.976 252.732 407.152 237.164 401.128C219.031 394.111 206.457 381.479 199.11 363.762C193.048 349.141 191.946 334.015 196.983 318.355Z" fill="#F9C30B"/>
<path d="M359.998 646.833C340.186 651.993 321.425 649.227 304.611 637.723C285.626 624.734 275.076 606.455 275.165 583.104C275.195 575.184 277.163 567.27 278.86 559.382C280.936 562.06 281.889 565.214 283.938 567.283C308.06 591.646 332.379 615.813 356.517 640.16C358.204 641.862 358.862 644.585 359.998 646.833Z" fill="#E9AD11"/>
<path d="M475.471 271.022C461.316 271.035 447.628 271.015 433.004 270.99C415.047 271.006 398.027 271.026 381.006 271.047C379.15 270.873 377.294 270.699 375.174 270.232C376.368 265.08 377.825 260.222 380.073 255.176C441.176 254.995 501.489 255.002 561.801 255.008C563.527 260.051 565.252 265.094 567.009 270.513C536.673 270.922 506.306 270.956 475.471 271.022Z" fill="#DC9715"/>
<path d="M360.377 646.893C358.862 644.585 358.204 641.862 356.517 640.16C332.379 615.813 308.06 591.646 283.938 567.283C281.889 565.214 280.936 562.061 279.186 559.179C279.685 556.406 280.474 553.866 281.867 550.956C282.633 549.697 282.794 548.809 282.955 547.921C282.955 547.921 282.979 547.99 283.263 547.86C285.691 545.152 287.834 542.574 289.978 539.996C292.623 543.802 294.791 548.076 297.992 551.336C315.925 569.594 334.057 587.658 352.227 605.681C360.468 613.857 369.029 621.71 377.263 629.892C378.925 631.543 379.767 634.018 380.993 636.473C374.25 640.206 367.503 643.58 360.377 646.893Z" fill="#EDB210"/>
<path d="M391.172 220.378C443.81 220.002 496.352 220.002 549.349 220.003C551.419 224.428 553.033 228.851 554.253 233.638C502.594 234 451.33 234.024 400.067 233.957C395.786 233.951 391.505 233.336 387.225 233.004C388.508 228.92 389.792 224.837 391.172 220.378Z" fill="#F1A717"/>
<path d="M651.023 524.585C632.564 535.964 614.049 546.915 595.583 557.949C576.55 569.323 557.583 580.807 538.531 592.148C536.891 593.125 534.831 593.397 532.589 593.997C530.931 590.571 529.651 587.145 528.686 583.358C530.359 582.513 531.842 582.237 533.06 581.514C555.829 567.988 578.601 554.466 601.3 540.821C616.602 531.622 631.791 522.233 647.031 512.929C648.35 516.684 649.669 520.439 651.023 524.585Z" fill="#F4A917"/>
<path d="M561.753 254.653C501.488 255.002 441.175 254.996 380.389 254.98C380.693 252.095 381.471 249.22 383.043 246.164C441.835 245.99 499.834 245.996 557.832 246.002C559.123 248.767 560.414 251.532 561.753 254.653Z" fill="#E49D16"/>
<path d="M525.167 573.997C524.11 570.6 523.053 567.203 522.318 563.376C523.558 562.562 524.538 562.283 525.383 561.776C556.983 542.835 588.598 523.917 620.14 504.877C626.913 500.788 633.414 496.247 640.04 491.914C641.357 495.672 642.675 499.43 643.708 503.719C610.058 524.212 576.713 544.211 543.307 564.104C537.393 567.626 531.22 570.711 525.167 573.997Z" fill="#E49D16"/>
<path d="M420.022 439.081C413.891 443.641 407.76 448.201 401.316 452.508C402.169 447.834 403.468 443.444 404.474 438.988C407.573 425.251 401.088 417 387.308 417C369.057 417 350.806 417.061 332.556 416.909C330.684 416.893 328.822 415.606 326.955 414.909C327.636 412.23 328.316 409.551 328.979 406.489C333.335 405.739 337.708 405.372 342.544 404.977C360.693 404.968 378.38 404.988 396.536 404.975C400.054 405.199 403.105 405.455 406.609 406.136C407.723 407.25 408.273 408.122 409.061 408.601C417.185 413.541 420.762 420.714 420.036 430.18C419.809 433.13 420.014 436.113 420.022 439.081Z" fill="#D08D13"/>
<path d="M298.193 500.002C304.083 482.557 309.973 465.113 316.451 447.401C318.991 447.423 320.942 447.943 322.897 447.961C332.394 448.048 341.892 447.938 351.388 448.026C356.59 448.075 358.585 451.561 355.923 455.999C354.92 457.67 353.465 459.184 351.924 460.399C336.704 472.397 321.471 484.38 306.105 496.189C303.833 497.935 300.848 498.754 298.193 500.002Z" fill="#F9AD17"/>
<path d="M640.015 491.529C633.414 496.246 626.913 500.787 620.14 504.876C588.598 523.916 556.983 542.834 525.383 561.776C524.538 562.282 523.558 562.561 522.279 562.985C520.714 559.924 519.511 556.823 518.619 553.352C520.902 552.157 523.012 551.562 524.825 550.473C562.25 527.984 599.642 505.439 637.04 482.905C638.024 485.651 639.007 488.398 640.015 491.529Z" fill="#DC9715"/>
<path d="M525.219 574.36C531.22 570.711 537.394 567.626 543.307 564.104C576.714 544.211 610.058 524.212 643.747 504.11C644.957 506.726 645.844 509.481 646.881 512.582C631.79 522.233 616.602 531.622 601.299 540.821C578.601 554.466 555.828 567.988 533.059 581.514C531.842 582.237 530.358 582.513 528.629 582.998C527.262 580.24 526.266 577.481 525.219 574.36Z" fill="#ECA316"/>
<path d="M636.889 482.569C599.644 505.44 562.252 527.984 524.826 550.473C523.013 551.563 520.904 552.157 518.569 552.988C517.157 549.914 516.108 546.833 515.498 543.375C517.959 542.327 520.187 542.004 521.971 540.937C546.036 526.538 570.019 512 594.066 497.57C607.279 489.642 620.575 481.851 633.834 473.998C634.801 476.743 635.768 479.487 636.889 482.569Z" fill="#D39014"/>
<path d="M557.892 245.62C499.835 245.995 441.836 245.989 383.361 245.97C383.534 243.862 384.182 241.766 385.456 239.336C442.747 238.991 499.412 238.982 556.077 238.973C556.702 241.062 557.326 243.15 557.892 245.62Z" fill="#E8A016"/>
<path d="M633.766 473.62C620.574 481.851 607.277 489.641 594.064 497.57C570.017 512 546.034 526.537 521.969 540.937C520.185 542.004 517.957 542.327 515.555 542.995C514.668 541.725 514.161 540.457 513.355 539.006C515.284 536.791 517.512 534.758 520.244 532.353C526.481 527.94 532.213 523.899 538.134 520.127C540.86 519.414 543.597 518.769 545.901 517.397C568.924 503.686 591.917 489.922 614.819 476.01C620.415 472.611 625.648 468.616 631.048 464.895C631.932 467.677 632.816 470.46 633.766 473.62Z" fill="#CB8A13"/>
<path d="M290.116 539.687C287.834 542.574 285.691 545.152 283.227 547.855C284.886 541.881 286.865 535.782 289.372 529.337C296.565 524.191 303.375 519.576 309.874 514.559C332.261 497.281 354.486 479.793 376.886 462.533C385.193 456.132 389.967 448.366 389.059 437.498C388.489 430.675 385.15 427.037 378.449 427.007C371.463 426.975 364.474 427.117 357.49 426.973C346.057 426.737 334.627 426.331 323.196 425.997C323.578 424.425 323.96 422.853 324.937 421.41C327.333 421.693 329.134 421.976 330.937 421.979C347.898 422.013 364.859 422.025 381.82 421.99C391.295 421.971 394.747 426.906 395.885 434.26C397.327 443.581 394.362 452.139 387.243 458.02C369.023 473.07 350.222 487.413 331.765 502.18C327.611 505.503 323.916 509.399 320.009 513.032C319.915 513.351 319.733 513.609 318.887 513.908C317.544 514.686 316.777 515.36 316.009 516.034C315.422 516.837 314.836 517.641 314.121 518.715C305.321 524.899 296.251 530.349 290.116 539.687Z" fill="#DC9715"/>
<path d="M298.122 500.381C300.848 498.754 303.833 497.935 306.105 496.189C321.471 484.38 336.704 472.397 351.924 460.4C353.465 459.185 354.92 457.671 355.923 456C358.586 451.561 356.59 448.075 351.388 448.027C341.892 447.938 332.394 448.048 322.897 447.961C320.942 447.943 318.991 447.423 316.641 447.069C316.837 444.915 317.431 442.827 318.558 440.369C333.046 440.001 347.002 439.965 360.958 440.017C367.254 440.041 369.138 442.181 369.019 448.498C368.905 454.536 364.924 458.193 360.78 461.473C342.783 475.724 324.69 489.858 306.503 503.867C302.942 506.61 298.806 508.609 294.936 510.951C295.974 507.554 297.013 504.157 298.122 500.381Z" fill="#F1A717"/>
<path d="M320.357 512.987C323.916 509.399 327.611 505.503 331.765 502.18C350.222 487.413 369.024 473.07 387.243 458.02C394.363 452.139 397.327 443.581 395.885 434.26C394.747 426.906 391.296 421.971 381.82 421.99C364.859 422.025 347.898 422.014 330.937 421.98C329.135 421.976 327.333 421.693 325.244 421.228C325.413 419.039 325.868 417.161 326.64 415.096C328.823 415.606 330.684 416.893 332.557 416.908C350.806 417.06 369.058 417 387.308 417C401.089 417 407.574 425.25 404.474 438.987C403.469 443.443 402.169 447.833 401.008 452.658C399.129 454.519 397.247 455.975 395.176 457.696C386.765 464.117 378.543 470.272 370.165 476.728C361.13 483.502 352.251 489.974 343.186 496.722C335.568 502.313 328.137 507.628 320.357 512.987Z" fill="#D99415"/>
<path d="M323.031 426.313C334.628 426.332 346.057 426.738 357.491 426.974C364.475 427.118 371.464 426.976 378.45 427.008C385.151 427.038 388.49 430.676 389.06 437.499C389.968 448.367 385.194 456.133 376.887 462.534C354.487 479.794 332.262 497.282 309.875 514.56C303.376 519.577 296.566 524.192 289.543 528.999C289.795 526.918 290.403 524.829 291.45 522.365C293.635 521.118 295.589 520.513 297.099 519.338C321.547 500.327 345.831 481.101 370.427 462.283C376.041 457.987 379.655 452.995 381.412 446.291C383.482 438.392 378.838 432.002 370.789 432.001C356.796 431.999 342.801 432.094 328.81 431.907C326.519 431.877 324.244 430.616 321.961 429.924C322.262 428.826 322.564 427.728 323.031 426.313Z" fill="#E49D16"/>
<path d="M631.026 464.495C625.649 468.616 620.416 472.611 614.82 476.01C591.918 489.922 568.926 503.686 545.903 517.397C543.599 518.769 540.861 519.414 538.309 519.848C544.875 514.206 551.458 509.111 558.041 504.017C568.623 496.23 579.206 488.443 590.262 480.212C599.843 472.916 608.953 466.064 618.062 459.212C621.148 457.183 624.234 455.154 627.664 453.137C629.006 456.797 630.005 460.446 631.026 464.495Z" fill="#C48411"/>
<path d="M556.039 238.601C499.412 238.983 442.747 238.992 385.625 239.002C385.741 237.219 386.315 235.437 387.057 233.329C391.506 233.336 395.786 233.952 400.067 233.957C451.331 234.024 502.595 234.001 554.311 234.001C555.176 235.41 555.588 236.819 556.039 238.601Z" fill="#ECA316"/>
<path d="M321.659 430.109C324.244 430.615 326.519 431.876 328.811 431.907C342.802 432.093 356.796 431.998 370.789 432C378.838 432.001 383.482 438.392 381.413 446.29C379.656 452.994 376.042 457.986 370.427 462.282C345.831 481.1 321.548 500.326 297.1 519.337C295.589 520.512 293.636 521.117 291.527 521.994C291.783 520.239 292.399 518.476 293.465 516.356C295.387 515.394 297.068 515.065 298.298 514.138C304.779 509.255 311.149 504.225 317.552 499.238C335.055 485.607 352.81 472.278 369.843 458.083C373.273 455.225 374.893 449.224 375.647 444.407C376.367 439.806 371.396 436.092 366.534 435.993C351.091 435.678 335.649 435.333 320.207 435C320.59 433.432 320.973 431.864 321.659 430.109Z" fill="#E8A016"/>
<path d="M320.051 435.312C335.649 435.333 351.092 435.678 366.534 435.993C371.396 436.092 376.367 439.807 375.647 444.407C374.893 449.225 373.273 455.225 369.843 458.083C352.81 472.278 335.055 485.607 317.552 499.239C311.149 504.225 304.779 509.255 298.298 514.139C297.068 515.065 295.387 515.394 293.541 516C293.472 514.892 293.777 513.783 294.33 512.196C294.797 511.498 294.926 511.234 294.967 510.927C294.967 510.927 294.977 510.971 294.956 510.961C298.806 508.608 302.942 506.61 306.503 503.866C324.691 489.858 342.783 475.724 360.781 461.473C364.924 458.192 368.905 454.535 369.019 448.498C369.138 442.181 367.254 440.04 360.958 440.017C347.002 439.964 333.046 440 318.634 440C318.75 438.541 319.322 437.082 320.051 435.312Z" fill="#ECA316"/>
<path d="M282.649 548.083C282.795 548.809 282.634 549.697 282.183 550.772C282.043 550.054 282.193 549.15 282.649 548.083Z" fill="#DC9715"/>
<path d="M294.723 511.008C294.924 511.235 294.795 511.498 294.394 511.846C294.301 511.678 294.391 511.383 294.723 511.008Z" fill="#F1A717"/>
<path d="M618.006 458.856C608.952 466.063 599.842 472.915 590.438 479.922C588.153 478.608 585.936 477.368 584.205 475.64C517.594 409.106 451.024 342.529 384.471 275.936C383.203 274.668 382.2 273.135 381.039 271.386C398.026 271.025 415.046 271.005 432.535 271.017C433.877 272.742 434.395 274.79 435.677 276.074C495.132 335.647 554.654 395.153 614.167 454.669C615.436 455.938 616.69 457.224 618.006 458.856Z" fill="#FFE600"/>
<path d="M557.671 504.007C551.458 509.112 544.875 514.206 538.119 519.58C532.214 523.9 526.482 527.941 520.416 532.072C518.779 530.666 517.559 529.086 516.16 527.685C487.686 499.178 459.176 470.708 430.74 442.164C428.912 440.329 427.628 437.953 426.33 435.284C437.946 426.448 449.322 418.157 460.698 409.866C462.206 411.151 463.81 412.34 465.207 413.736C494.175 442.666 523.107 471.633 552.107 500.531C553.554 501.972 555.558 502.854 557.671 504.007Z" fill="#FFD801"/>
<path d="M460.912 409.596C449.321 418.157 437.945 426.448 426.292 434.941C424.215 436.356 422.415 437.57 420.319 438.932C420.014 436.113 419.81 433.13 420.036 430.18C420.762 420.714 417.185 413.541 409.061 408.601C408.273 408.122 407.724 407.25 407.004 406.205C422.741 405.692 438.538 405.534 454.661 405.129C458.049 404.882 461.112 404.882 464.174 404.882C464.569 405.405 464.965 405.929 465.36 406.453C463.949 407.41 462.538 408.368 460.912 409.596Z" fill="#C48411"/>
<path d="M316.33 515.998C316.776 515.36 317.544 514.687 318.67 514.012C318.237 514.661 317.444 515.311 316.33 515.998Z" fill="#D99415"/>
</g>
<defs>
<clipPath id="clip0_4314_902">
<rect width="2556" height="926" fill="white"/>
</clipPath>
</defs>
</svg>
