<?xml version="1.0" standalone="no"?>
<!DOCTYPE svg PUBLIC "-//W3C//DTD SVG 20010904//EN"
 "http://www.w3.org/TR/2001/REC-SVG-20010904/DTD/svg10.dtd">
<svg version="1.0" xmlns="http://www.w3.org/2000/svg"
 width="200.000000pt" height="200.000000pt" viewBox="0 0 200.000000 200.000000"
 preserveAspectRatio="xMidYMid meet">
<metadata>
Created by potrace 1.16, written by Peter Selinger 2001-2019
</metadata>
<g transform="translate(0.000000,200.000000) scale(0.100000,-0.100000)"
fill="#000000" stroke="none">
<path d="M229 1128 c-79 -182 -145 -335 -147 -340 -2 -4 33 -8 78 -8 67 0 86
4 110 21 16 12 50 27 77 34 l48 12 3 72 c3 66 1 72 -15 67 -10 -3 -30 -8 -45
-12 l-28 -6 51 123 c28 68 58 140 66 159 l14 35 64 -154 c36 -85 63 -156 62
-157 -1 -2 -19 1 -40 6 -20 4 -39 5 -40 1 -2 -3 -3 -35 -3 -70 l1 -64 48 -12
c27 -7 61 -22 77 -34 24 -17 43 -21 110 -21 44 0 80 2 80 4 0 4 -251 585 -281
649 -12 25 -16 27 -79 27 l-66 0 -145 -332z"/>
<path d="M920 1121 l0 -339 73 2 72 1 3 338 2 337 -75 0 -75 0 0 -339z"/>
<path d="M1240 1120 l0 -340 69 0 c56 0 70 3 75 17 4 10 6 104 5 210 -1 107 1
196 3 198 3 3 46 -56 96 -131 l90 -136 96 143 96 144 0 -216 c0 -246 -7 -229
91 -229 l59 0 0 340 0 340 -79 0 -80 0 -88 -140 c-48 -77 -90 -140 -93 -140
-3 0 -43 62 -90 138 l-86 137 -82 3 -82 3 0 -341z"/>
</g>
</svg>
