<svg xmlns="http://www.w3.org/2000/svg" width="159" height="50" viewBox="0 0 2548 808" fill="none">
  <path fill-rule="evenodd" clip-rule="evenodd" d="M500.004 28.0257C487.675 43.4184 476.865 55.9952 475.982 55.9712C475.096 55.9472 469.061 46.3384 462.569 34.6184C456.078 22.8983 450.073 13.3349 449.224 13.3696C448.375 13.4043 411.048 77.0198 366.273 154.742L284.868 296.049L141.476 420.862C62.6117 489.509 -1.0492 546.412 0.0131042 547.311C1.07274 548.211 15.1522 553.53 31.3003 559.133C47.4484 564.735 61.0822 569.652 61.6 570.063C62.1152 570.471 52.8133 582.816 40.9251 597.493C23.3464 619.198 20.1835 624.438 23.971 625.553C26.5333 626.309 42.0995 628.951 58.5626 631.425C84.6104 635.338 88.187 636.481 86.1291 640.236C84.8293 642.609 76.4535 657.164 67.5174 672.578L51.2679 700.603L246.807 701.938L442.343 703.272L592.587 756.326C675.22 785.505 743.458 808.75 744.23 807.981C744.998 807.213 743.071 792.522 739.948 775.338C736.825 758.155 734.719 743.645 735.267 743.098C735.814 742.548 750.003 744.468 766.8 747.358C783.594 750.249 798.73 752.624 800.438 752.632C802.395 752.646 800.804 745.511 796.125 733.3C782.675 698.209 780.332 701.938 815.839 701.938C832.82 701.938 846.713 701.431 846.713 700.812C846.713 700.195 808.897 634.215 762.681 554.195C716.463 474.175 676.843 404.717 674.638 399.846C672.433 394.972 656.194 309.913 638.549 210.822C620.906 111.732 605.842 27.9162 605.076 24.5664C603.789 18.956 601.577 20.2986 576.97 41.6034C562.282 54.3244 549.836 64.2721 549.313 63.7089C548.792 63.1457 543.23 48.5724 536.957 31.3247C530.682 14.0769 524.845 -0.0213286 523.983 2.42235e-05C523.121 0.0213771 512.33 12.6329 500.004 28.0257ZM374.12 172.691C334.012 244.309 264.009 367.165 218.56 445.704C173.11 524.242 123.582 610.121 108.499 636.545L81.0739 684.589L265.045 685.275C366.228 685.651 531.886 685.651 633.171 685.275L817.326 684.589L785.005 628.537C767.232 597.709 733.203 538.855 709.387 497.751C629.872 360.511 473.98 89.6099 463.634 70.694C458.016 60.4179 451.984 49.8642 450.23 47.2432C447.481 43.1301 437.053 60.3191 374.12 172.691ZM1997.05 100.572L1990.32 101.624L1990.37 212.274L1990.42 322.922L2005.77 322.925H2021.12V210.822V98.7196L2012.45 99.12C2007.68 99.3388 2000.74 99.9928 1997.05 100.572ZM1073.27 139.629C1047.03 149.395 1033.55 165.399 1033.55 186.779C1033.55 217.228 1052.3 230.301 1106.39 237.559C1147.56 243.081 1160.28 254.734 1152.91 280.182C1150.42 288.787 1147.12 293.41 1140.88 297.058C1130.11 303.349 1105.05 305.765 1090.74 301.892C1078.71 298.636 1060.98 282.739 1058.54 273.02C1057.16 267.554 1055.4 266.873 1042.6 266.873C1029.9 266.873 1028.21 267.511 1028.21 272.318C1028.21 286.486 1045.04 308.471 1062.84 317.552C1086.68 329.712 1129.76 329.779 1153.45 317.696C1179.61 304.348 1190.73 271.099 1176.36 249.172C1169.66 238.936 1147.6 230.264 1116.5 225.641C1072.88 219.152 1061.5 210.867 1063.83 187.302C1065.37 171.701 1073.37 163.755 1091.29 160.034C1113.19 155.489 1132.06 160.24 1143.82 173.26C1148.88 178.854 1154.5 187.945 1156.32 193.46L1159.63 203.482L1173.02 201.897C1180.39 201.024 1186.85 199.871 1187.39 199.334C1189.57 197.154 1180.26 172.278 1173.75 162.882C1169.92 157.355 1160.53 149.395 1152.88 145.197C1140.47 138.383 1135.98 137.48 1110.95 136.8C1092.27 136.29 1079.71 137.232 1073.27 139.629ZM1263.08 138.439C1241.52 145.458 1221.68 164.326 1213.46 185.623C1209.4 196.163 1208.38 205.775 1208.38 233.51C1208.38 266.142 1208.82 269.118 1215.88 283.486C1230.46 313.172 1255.57 326.939 1294.16 326.405C1335.27 325.837 1361.72 306.291 1372.01 268.875L1374.77 258.866H1359.02C1344.04 258.866 1343.18 259.226 1341.5 266.206C1335.26 292.166 1321.16 302.695 1292.45 302.826C1278.82 302.89 1272.96 301.572 1265.07 296.669C1238.68 280.256 1229.37 229.711 1244.96 187.467C1249.08 176.292 1252.39 172.133 1261.28 166.921C1293.09 148.282 1327.5 160.531 1339.68 194.815C1342.87 203.789 1345.63 207.777 1348.03 206.859C1350 206.103 1356.32 205.484 1362.07 205.484C1374.21 205.484 1374.96 202.895 1368.38 183.584C1363.11 168.124 1348.44 150.906 1334.21 143.481C1325.43 138.9 1317.65 137.56 1296.46 136.984C1281.78 136.586 1266.76 137.24 1263.08 138.439ZM1452.44 139.557C1426.5 146.921 1411.07 161.422 1402.09 186.883C1396.26 203.431 1396.05 203.146 1416.9 206.656C1427.9 208.508 1427.92 208.492 1429.72 198.891C1433.77 177.298 1463.58 157.421 1485.69 161.569C1507.95 165.744 1518.37 179.78 1521.13 209.277L1522.74 226.548L1489.67 226.244C1427.53 225.676 1396.55 243.383 1396.55 279.456C1396.55 302.402 1407.32 317.199 1429.35 324.515C1462.86 335.646 1507.96 313.999 1519.87 281.07C1522.8 272.948 1528.53 267.89 1526.12 275.548C1525.54 277.384 1524.29 288.792 1523.35 300.904L1521.63 322.925H1538.2H1554.78L1553.3 259.533C1551.66 188.906 1549.08 174.832 1534.81 158.58C1530.24 153.375 1521.69 146.659 1515.8 143.654C1502.33 136.784 1469.66 134.672 1452.44 139.557ZM1666.65 143C1651 150.799 1639.05 163.843 1632.12 180.693C1626.14 195.251 1623.19 195.291 1624.72 180.795C1625.38 174.557 1626.57 162.546 1627.36 154.104L1628.81 138.756H1612.83H1596.84L1596.12 252.193L1595.4 365.633L1612.49 365.63H1629.59L1627.92 331.599C1627 312.883 1625.48 291.563 1624.53 284.223L1622.81 270.877L1631.35 287.596C1644.68 313.695 1665.14 326.632 1692.83 326.475C1721.39 326.312 1739.72 313.746 1752.65 285.48C1765.7 256.934 1767.04 207.323 1755.51 179.594C1739.3 140.619 1702.14 125.315 1666.65 143ZM1842.27 138.58C1822.21 144.684 1803.21 161.82 1794.42 181.745C1786.37 199.983 1783.06 228.43 1786.3 251.526C1793.37 301.993 1822.2 326.693 1873.79 326.475C1893.62 326.392 1897.83 325.426 1913.83 317.293C1945.72 301.075 1958.35 273.72 1956.66 224.509C1955.81 200.028 1954.66 194.052 1948.21 180.891C1939.28 162.642 1921.42 146.094 1904.39 140.291C1891.47 135.89 1854.47 134.87 1842.27 138.58ZM2101.58 140.283C2077.32 146.809 2062.72 160.512 2053.36 185.524C2050.31 193.676 2047.81 200.802 2047.81 201.36C2047.81 203.298 2074.96 208.182 2077.4 206.68C2078.74 205.85 2079.84 203.245 2079.84 200.89C2079.84 194.386 2092.18 174.722 2099.08 170.233C2117.4 158.321 2140.93 158.38 2155.19 170.374C2165.34 178.918 2169.68 189.154 2172.05 210.101L2173.91 226.5L2139.55 226.346C2102.43 226.178 2089 228.967 2068.2 241.157C2038.61 258.503 2039.02 302.989 2068.93 319.804C2101.96 338.371 2147.25 323.077 2167.47 286.523L2176.12 270.877L2174.37 296.901L2172.62 322.925H2189H2205.38L2203.93 270.21C2203.14 241.215 2201.93 210.542 2201.25 202.046C2199.66 182.164 2190.98 162.162 2179.63 152.198C2162.58 137.23 2130.91 132.393 2101.58 140.283ZM1670.13 159.837C1657.64 162.978 1651.34 167.169 1641.09 179.148C1627.85 194.613 1625.3 204.35 1626.62 234.457C1627.9 263.729 1632.94 276.626 1648.39 290.199C1666.14 305.784 1688.71 307.847 1708.39 295.684C1734.69 279.432 1740.99 214.423 1719.54 180.608C1708.39 163.018 1689.33 155.008 1670.13 159.837ZM1850.98 160.421C1846.22 161.796 1838.26 166.987 1833.29 171.96C1821.71 183.533 1816.89 201.867 1817.06 233.71C1817.17 254.486 1818.21 260.038 1824.43 272.735C1834.3 292.919 1847.33 301.772 1869.56 303.4C1901.66 305.754 1918.87 290.031 1925.19 252.588C1930.62 220.42 1924.17 191.53 1907.75 174.496C1892.8 158.969 1873 154.061 1850.98 160.421ZM1462.3 240.473C1436.73 246.479 1425.91 257.024 1425.91 275.935C1425.91 288.701 1434.93 298.518 1449.71 301.828C1471.08 306.614 1490.45 298.71 1509.62 277.395C1520.78 264.981 1522 262.344 1522 250.57V237.513L1497.31 237.78C1483.73 237.93 1467.97 239.141 1462.3 240.473ZM2118.54 239.328C2087.61 246.257 2077.17 255.036 2077.17 274.112C2077.17 303.993 2115.27 313.262 2146.15 290.893C2163.16 278.567 2173.26 263.011 2173.26 249.124V237.513L2148.57 237.823C2134.99 237.994 2121.48 238.672 2118.54 239.328ZM2137.42 465.911C2132.19 471.137 2131.96 484.037 2137.01 488.23C2139.18 490.032 2146.78 491.025 2154.82 490.558C2167.47 489.824 2169.08 489.021 2171.3 482.318C2175.34 470.134 2168.01 461.718 2153.37 461.718C2146.24 461.718 2139.96 463.368 2137.42 465.911ZM1090.94 513.341C1064.51 522.083 1048.46 537.257 1038.48 562.934C1033.8 574.985 1032.7 583.424 1032.7 607.185C1032.7 640.367 1037.79 658.226 1052.23 675.743C1076.77 705.49 1137.56 710.813 1171.56 686.187C1182.78 678.055 1194.74 657.716 1197.99 641.216L1199.7 632.541H1185.16H1170.61L1164.14 649.223C1158.47 663.836 1156.18 666.65 1145.75 671.91C1131.93 678.882 1110.13 679.923 1096.86 674.241C1085.76 669.492 1074.99 657.916 1069.54 644.862C1059.63 621.147 1062.37 572.652 1074.65 554.435C1087.35 535.586 1117.9 527.963 1139.55 538.239C1150.28 543.332 1163.15 559.661 1165.75 571.485C1167.91 581.332 1171.66 582.938 1187.06 580.627C1200.85 578.558 1201.23 577.224 1193.74 557.208C1187.34 540.097 1172.56 524.162 1156.33 516.881C1141.32 510.144 1106.32 508.251 1090.94 513.341ZM1276.83 514.695C1239.59 528.014 1221.76 558.105 1222.05 607.185C1222.21 635.373 1225.9 650.598 1236.71 667.61C1251.75 691.264 1279.3 703.419 1313.23 701.367C1353.55 698.927 1378.16 680.662 1388.94 645.187C1396.84 619.158 1395.2 579.012 1385.35 557.494C1371.5 527.25 1348.83 512.701 1312.47 510.739C1295.98 509.848 1287.87 510.747 1276.83 514.695ZM1499.31 513.739C1485.25 518.669 1467.53 538.306 1461.93 555.172C1459.5 562.493 1456.95 568.483 1456.27 568.483C1455.58 568.483 1455.85 556.472 1456.86 541.791L1458.7 515.1H1442.97H1427.24L1427.15 607.185L1427.06 699.269H1442.5H1457.94V637.773C1457.94 581.948 1458.42 575.331 1463.17 566.016C1484.15 524.891 1527.71 522.112 1539.3 561.161C1542.41 571.64 1543.35 589.176 1543.35 637.031V699.269H1559.36H1575.38V637.746C1575.38 585.837 1576.06 574.891 1579.78 567.682C1591.92 544.095 1606.01 533.784 1626.09 533.784C1635.21 533.784 1638.94 535.426 1646.1 542.584C1650.94 547.423 1656.22 556.133 1657.83 561.935C1659.58 568.224 1660.77 598.099 1660.77 635.877L1660.79 699.269H1676.8H1692.82L1692.8 645.219C1692.77 579.276 1689.84 550.682 1681.57 535.701C1658.98 494.783 1598.89 505.262 1579.54 553.493L1573.24 569.195L1570.15 554.323C1566.1 534.798 1558.01 523.134 1543.43 515.768C1529.9 508.932 1514.98 508.246 1499.31 513.739ZM2018.08 513.79C2001.82 519 1980.48 538.45 1971.85 555.916L1964.98 569.817L1966.7 542.459L1968.43 515.1H1952.46H1936.5L1936.41 607.185L1936.32 699.269H1952.03H1967.74V636.945V574.621L1975.38 564.212C1990.52 543.604 2006.59 533.784 2025.17 533.784C2040.02 533.784 2050.2 540.537 2056.64 554.659C2061.85 566.096 2062.42 572.716 2063.35 633.334L2064.37 699.52L2079.45 698.727L2094.52 697.934L2093.57 631.337C2092.34 545.747 2088.58 529.564 2066.99 516.921C2055.74 510.328 2033.35 508.895 2018.08 513.79ZM2260 513.323C2234.16 521.915 2220.4 534.23 2208.79 559.141C2201.92 573.887 2201.33 577.688 2201.35 607.185C2201.38 636.633 2201.98 640.535 2208.9 655.594C2222.56 685.331 2244.24 699.239 2280.25 701.375C2325.82 704.073 2357.88 681.703 2366.68 641.074L2368.59 632.261L2353.18 633.067C2339.2 633.801 2337.6 634.511 2335.95 640.706C2328.99 666.903 2314.43 677.916 2286.75 677.916C2254.08 677.916 2235.2 656.117 2232.66 615.485C2230.39 579.049 2238.25 553.301 2255.15 541.791C2263.47 536.125 2268 535.119 2285.17 535.119C2302.28 535.119 2306.67 536.09 2313.8 541.439C2322.51 547.976 2336.07 569.945 2336.07 577.517C2336.07 580.486 2338.46 581.828 2343.75 581.828C2354.99 581.828 2368.1 578.828 2368.1 576.258C2368.1 575.027 2365.56 567.212 2362.44 558.892C2355.41 540.102 2342.43 525.43 2325.99 517.695C2310.32 510.323 2275.89 508.041 2260 513.323ZM2151.91 514.385L2137.23 515.327V607.297V699.269H2152.57H2167.92V605.85C2167.92 554.47 2167.62 512.658 2167.25 512.936C2166.88 513.213 2159.98 513.865 2151.91 514.385ZM2438.74 516.678C2422 522.622 2408.32 535.594 2399.8 553.608C2389.05 576.338 2389.41 577.774 2406.82 580.931L2421.52 583.595L2424.29 573.335C2427.69 560.681 2441.2 544.872 2452.72 540.059C2472.24 531.905 2497.85 538.231 2507.13 553.501C2509.86 557.974 2512.8 567.081 2513.67 573.733C2514.54 580.387 2515.87 589.133 2516.62 593.172L2518 600.512H2486.32C2449.88 600.512 2427.92 605.089 2412.39 615.926C2398.83 625.393 2392.36 634.37 2390.4 646.469C2384.82 680.844 2410.47 704.207 2450.64 701.332C2479.32 699.282 2496.28 687.664 2512.21 659.155L2520.36 644.552L2518.64 668.574C2517.69 681.786 2516.77 693.797 2516.58 695.265C2516.39 696.733 2523.25 698.297 2531.82 698.743L2547.41 699.549L2546.47 632.015C2545.59 568.344 2545.19 563.716 2539.42 551.133C2526.1 522.064 2509.65 512.471 2473.53 512.701C2459.86 512.786 2444.87 514.503 2438.74 516.678ZM1735.55 574.488C1735.57 656.862 1740.37 680.206 1760.3 694.947C1771.8 703.451 1799.97 704.217 1817.88 696.512C1833.57 689.761 1853.49 669.551 1858.73 655.068C1861.75 646.714 1867.54 641.403 1865.1 649.223C1864.53 651.059 1863.31 663.07 1862.38 675.914L1860.7 699.269H1876.85H1893V607.185V515.1H1876.99H1860.97V577.616V640.135L1852.21 651.628C1827.81 683.606 1788.47 688.403 1773.62 661.21C1769.51 653.694 1768.78 643.538 1768.06 583.83L1767.23 515.1H1751.38H1735.53L1735.55 574.488ZM1282.98 537.54C1272.02 542.309 1261.27 555.609 1257.32 569.27C1252.85 584.708 1252.88 628.754 1257.37 641.445C1262.03 654.62 1275.32 669.716 1286.32 674.31C1291.07 676.293 1302.62 677.916 1311.99 677.916C1341.04 677.916 1356.02 662.342 1361.8 626.146C1368.37 585.031 1354.44 548.544 1327.9 537.393C1317.05 532.831 1293.61 532.906 1282.98 537.54ZM2464.19 614.228C2456.12 615.555 2444.11 619.318 2437.5 622.591C2427.62 627.483 2424.86 630.539 2421.91 639.838C2418.72 649.92 2418.87 652.223 2423.25 661.17C2429.23 673.387 2437.47 677.825 2454.27 677.876C2470.93 677.929 2482.42 672.898 2497.6 658.907C2512.29 645.363 2517.57 636.054 2517.57 623.704C2517.57 614.717 2517.4 614.581 2503.56 612.918C2487.02 610.929 2483.53 611.047 2464.19 614.228Z" fill="#0D0D0D"/>
</svg>