<svg width="1885" height="457" viewBox="0 0 1885 457" fill="none" xmlns="http://www.w3.org/2000/svg">
<path d="M1084 0H1090L1092 4L1085 24L1050 115L1034 158L1022 191L1011 226L1003 255L998 280L996 295V312L999 324L1005 333L1012 337L1020 340H1032L1046 337L1062 331L1082 320L1094 311L1105 302L1108 299H1110L1112 295L1140 267L1148 260L1159 250L1170 241L1183 230L1201 217L1219 205L1236 195L1252 187L1271 179L1290 173L1309 169L1316 168H1350L1365 171L1377 177L1383 185V196L1380 201L1378 202L1367 201L1361 200H1332L1312 204L1296 209L1281 215L1264 223L1248 232L1231 243L1212 257L1199 268L1191 275L1179 286L1172 293L1171 295H1169L1167 299L1157 310L1144 328L1134 345L1128 360L1126 368V380L1130 390L1137 396L1147 401L1155 403H1172L1193 398L1214 389L1230 381L1250 369L1266 358L1284 345L1294 337L1308 326L1321 315L1335 303L1347 292L1355 285L1371 270L1380 261L1388 254L1399 243L1406 235L1414 228L1420 226L1428 230L1430 233V241L1424 250L1414 263L1404 282L1400 296V308L1404 321L1410 331L1418 339L1426 343L1430 344H1443L1456 339L1467 331L1477 322L1493 305L1521 277L1532 268L1544 258L1563 245L1585 231L1607 219L1635 206L1661 196L1689 187L1717 180L1744 175L1761 173H1786L1792 177L1795 182L1796 186V193L1792 197L1754 203L1728 209L1695 219L1674 227L1653 236L1637 244L1620 253L1601 265L1584 278L1570 290L1548 312L1536 328L1526 347L1523 358V372L1528 384L1533 391L1540 396L1549 399L1554 400H1572L1591 397L1616 390L1642 381L1673 368L1697 357L1716 347L1732 339L1758 325L1782 311L1807 296L1832 280L1852 266L1863 259H1872L1877 263L1879 267V272L1874 278L1860 289L1842 303L1831 311L1795 337L1756 363L1732 378L1708 392L1690 402L1667 414L1644 425L1614 437L1589 445L1563 451L1546 453H1524L1507 451L1497 448L1487 442L1477 433L1468 419L1464 409L1462 402V381L1463 378L1457 379L1444 386L1434 395L1425 404L1414 419L1405 432L1395 446L1390 452L1383 457L1377 456L1368 449L1361 439L1355 427L1350 412L1346 393L1345 384V356L1335 361L1302 383L1278 398L1265 406L1242 419L1225 428L1200 439L1176 447L1154 452L1144 453H1125L1108 450L1096 445L1087 438L1080 431L1072 417L1067 402L1066 388L1067 377L1052 383L1035 392L1015 406L1001 417L986 430L972 442L955 455L950 454L941 448L932 436L926 424L921 407L918 386V352L921 324L926 295L933 266L940 241L932 248L918 261L910 268L896 280L886 289L875 298L862 309L852 317L838 328L825 338L808 351L790 364L767 380L744 395L726 406L704 419L680 432L664 440L647 448L630 454L626 453L624 450L625 440L633 404L650 335L669 262L678 227L684 205L683 204L671 212L653 225L637 236L594 265L556 289L531 304L507 318L484 331L450 349L402 373L362 391L327 405L297 416L261 428L229 437L200 444L161 451L124 455H80L57 451L41 446L27 440L17 433L8 424L2 414L0 408V387L3 376L11 360L18 349L27 338L38 326L53 312L64 303L80 291L103 275L127 260L151 246L171 235L194 224L226 210L255 199L292 187L326 178L341 175H355L360 179L361 182V189L356 192L313 205L278 217L241 232L217 243L192 255L163 270L141 283L122 295L106 306L94 315L78 328L63 342L52 354L45 364L38 378L36 385V395L42 407L49 413L59 418L72 422L94 425H119L146 422L170 418L202 410L239 398L272 385L299 373L328 359L355 345L397 321L425 304L447 290L474 272L493 259L513 245L531 232L550 218L588 189L602 178L618 165L632 154L647 141L657 133L699 97L711 86L719 79L729 70L742 58L752 49L785 18L801 2L803 1H810L812 3L811 15L795 79L778 141L755 223L736 291L722 348L721 350L737 342L758 328L777 314L793 301L807 290L820 278L831 269L839 261L847 254L862 240L869 233L877 226L929 174L930 172H932L934 168L951 151L958 143L964 136H966L968 132L976 124L983 116L996 102L1004 92H1006L1008 88L1020 75L1029 64L1040 52L1049 41L1061 27L1066 20H1068L1070 16L1081 2L1084 0Z" fill="#FFFFFF"/>
<path d="M1837 376H1853L1863 379L1872 386L1879 394L1883 402L1885 409V424L1881 436L1875 444L1866 452L1857 456L1852 457H1835L1824 453L1818 449L1811 442L1806 433L1804 425V408L1808 397L1812 391L1817 385L1826 379L1837 376ZM1838 384L1829 387L1823 391L1816 399L1812 409L1811 414V421L1814 431L1820 439L1828 446L1841 450L1853 449L1865 443L1872 436L1876 427L1877 422V411L1874 401L1867 392L1860 387L1851 384H1838Z" fill="#FFFFFF"/>
<path d="M1831 395H1851L1859 399L1862 405V413L1859 420L1856 423L1858 428L1862 434L1861 436H1854L1848 427V425L1837 424L1836 434L1834 437L1830 436L1829 434L1828 420V410L1829 396L1831 395ZM1838 401L1836 402L1835 406V415L1836 417H1851L1854 414L1855 408L1852 403L1844 401H1838Z" fill="#FFFFFF"/>
</svg>
