<?xml version="1.0" encoding="UTF-8"?>
<svg version="1.1" xmlns="http://www.w3.org/2000/svg" width="2548" height="808">
<path d="M0 0 C3 1 3 1 4.05224609 2.85302734 C4.37273926 3.6723877 4.69323242 4.49174805 5.0234375 5.3359375 C5.39871582 6.28202881 5.77399414 7.22812012 6.16064453 8.20288086 C6.76175049 9.77307983 6.76175049 9.77307983 7.375 11.375 C7.79765137 12.45595947 8.22030273 13.53691895 8.65576172 14.65063477 C10.12226702 18.42695173 11.56528617 22.21152089 13 26 C13.28109619 26.74147278 13.56219238 27.48294556 13.85180664 28.24688721 C15.95679661 33.80524018 18.04567492 39.36949929 20.125 44.9375 C20.56522491 46.11406158 20.56522491 46.11406158 21.01434326 47.31439209 C21.84939172 49.55062056 22.67951406 51.78860755 23.5078125 54.02734375 C23.76044861 54.70334122 24.01308472 55.37933868 24.27337646 56.07582092 C26 60.76935999 26 60.76935999 26 63 C35.95911221 55.52239415 45.44310976 47.60340341 54.81884766 39.41064453 C74.50571938 22.21951423 74.50571938 22.21951423 81 21 C82.9680936 23.9521404 83.42987371 25.38377646 84.03483582 28.77641296 C84.30454948 30.25901958 84.30454948 30.25901958 84.57971191 31.77157784 C84.77021118 32.85975744 84.96071045 33.94793705 85.15698242 35.0690918 C85.36466751 36.22242949 85.5723526 37.37576717 85.78633118 38.56405449 C86.36127976 41.76494818 86.92986108 44.96689857 87.49581313 48.16939282 C88.1050526 51.60782114 88.72245907 55.04478301 89.33894348 58.48191833 C90.4038577 64.42540623 91.46371342 70.36977815 92.52026367 76.3147583 C94.05609868 84.9559622 95.60082154 93.59555946 97.14789557 102.23475742 C99.62484075 116.06724864 102.09655119 129.90066882 104.56396484 143.73486328 C104.70845936 144.54499721 104.85295387 145.35513113 105.001827 146.18981457 C105.57936489 149.42793253 106.15688719 152.66605326 106.73438895 155.90417767 C111.02833516 179.98036988 115.32779856 204.05557434 119.64212418 228.12812376 C119.88086673 229.46025995 120.11958282 230.79240088 120.35827255 232.12454653 C126.94948454 268.91024205 133.66714524 305.66857648 140.6875 342.375 C140.95318787 343.76599789 140.95318787 343.76599789 141.22424316 345.18509674 C142.22517693 350.42421813 143.22996133 355.66257404 144.24106789 360.89974213 C144.53754675 362.43580931 144.83338483 363.97200037 145.12845421 365.50833893 C146.68511446 373.6017687 148.32388193 381.67496303 150.07592773 389.72851562 C150.23646731 390.48009634 150.39700689 391.23167706 150.56241131 392.00603294 C151.78643501 397.54556007 153.51192501 402.25238612 156.375 407.125 C157.01465698 408.27838867 157.01465698 408.27838867 157.66723633 409.45507812 C159.08378751 411.98702196 160.53691432 414.49468399 162 417 C162.78624756 418.35689941 162.78624756 418.35689941 163.58837891 419.74121094 C165.87214968 423.67883998 168.16415811 427.6113629 170.47412109 431.53369141 C174.93954173 439.12310832 179.24811895 446.78919499 183.5 454.5 C188.76316869 464.03457852 194.14862846 473.48381562 199.66235352 482.87548828 C204.14238088 490.51091502 208.55371984 498.18405344 212.9375 505.875 C219.96541705 518.20060228 227.04240683 530.49722498 234.14111328 542.78222656 C237.26324605 548.18670645 240.38141204 553.59347412 243.5 559 C244.74998122 561.1666775 245.99998121 563.33334417 247.25 565.5 C249.75 569.83333333 252.25 574.16666667 254.75 578.5 C255.36866943 579.57233887 255.98733887 580.64467773 256.62475586 581.74951172 C257.8756448 583.91776264 259.12645852 586.08605697 260.37719727 588.25439453 C263.48798335 593.64717915 266.60004238 599.03922093 269.71484375 604.4296875 C278.85891567 620.25859834 287.94037273 636.1226871 297 652 C299.08624277 655.65613372 301.17271248 659.31213688 303.26025391 662.9675293 C304.61312552 665.33655622 305.96418628 667.70660217 307.31396484 670.07739258 C310.33077442 675.36794217 313.36725504 680.64281931 316.484375 685.875 C317.00862061 686.75986084 317.53286621 687.64472168 318.07299805 688.55639648 C319.03701235 690.17836122 320.00931724 691.79543906 320.99145508 693.40649414 C322.07139971 695.22742573 323.047245 697.1094101 324 699 C323.67 699.99 323.34 700.98 323 702 C322.36186371 702.01030746 321.72372742 702.02061493 321.06625366 702.03123474 C314.41500111 702.13954844 307.76387723 702.25412568 301.11279297 702.37231445 C298.63170061 702.41558367 296.15058001 702.45726432 293.66943359 702.49731445 C290.09984839 702.55521121 286.53040427 702.61884981 282.9609375 702.68359375 C281.85446869 702.70030624 280.74799988 702.71701874 279.60800171 702.73423767 C274.64520455 702.82935743 269.87591993 702.96044499 265 704 C266.14896574 712.55722242 268.72927802 720.03812822 272 728 C275.21361533 735.82285789 278.31746828 743.48460423 279 752 C278 753 278 753 276.03979492 753.00195312 C265.36847118 752.14452919 254.86204401 750.2749548 244.3125 748.5 C241.41885914 748.01583209 238.52499493 747.53310858 235.63066101 747.05310059 C233.84263862 746.75631113 232.05501836 746.45708409 230.26789856 746.15490723 C224.8565693 745.25348892 219.45728104 744.56264166 214 744 C214.5062979 754.85921694 216.09425963 765.31711738 218 776 C219.90574037 786.68288262 221.4937021 797.14078306 222 808 C215.02611329 807.42974572 208.86942068 805.51605677 202.26171875 803.2734375 C201.12557129 802.89423157 199.98942383 802.51502563 198.81884766 802.12432861 C195.74529464 801.09628423 192.67417294 800.06136901 189.60421371 799.02265167 C187.02099825 798.14979111 184.43599888 797.28227791 181.8510561 796.41454887 C162.0896262 789.77903105 142.38195655 782.99297593 122.72039795 776.06723022 C115.6155536 773.56507437 108.50548276 771.07808817 101.39359665 768.59602165 C77.69127877 760.3237166 53.99559516 752.03581572 30.36520386 743.55966187 C19.57223749 739.68918528 8.7673903 735.854205 -2.05078125 732.0546875 C-3.27307434 731.62523834 -4.49536743 731.19578918 -5.75469971 730.75332642 C-11.97507797 728.56974106 -18.19821738 726.39451529 -24.42626953 724.23291016 C-34.69895071 720.66158129 -44.94811435 717.08444176 -55.06640625 713.09375 C-57.24381788 712.25460249 -59.42238669 711.41853482 -61.60131836 710.58334351 C-63.41477242 709.87056441 -65.20764853 709.10601673 -66.99804688 708.3371582 C-75.85442857 704.94819819 -84.29380509 704.59613179 -93.68754578 704.39135742 C-95.11582785 704.35413975 -96.54409801 704.31646259 -97.9723565 704.27835083 C-112.16550015 703.91560136 -126.36066809 703.79435903 -140.55786133 703.71875 C-143.35039292 703.70131893 -146.14291607 703.68266749 -148.93544006 703.6640625 C-154.88464344 703.62501858 -160.83385808 703.58874806 -166.78309059 703.55444336 C-175.45691009 703.50436927 -184.13069175 703.44916012 -192.80447217 703.39276218 C-206.98429547 703.30064354 -221.16413618 703.21161038 -235.34399414 703.125 C-236.18756404 703.11984658 -237.03113393 703.11469316 -237.90026655 703.10938358 C-241.31357638 703.08853708 -244.72688627 703.06769994 -248.14019622 703.04687452 C-257.45780596 702.99000657 -266.77541263 702.93264696 -276.09301758 702.875 C-276.92490511 702.86985414 -277.75679265 702.86470827 -278.6138889 702.85940647 C-292.7098833 702.7721303 -306.80586195 702.68248847 -320.90183276 702.59148407 C-328.75006901 702.54092586 -336.598309 702.49158191 -344.44657326 702.44555664 C-386.96898975 702.19587711 -429.48266417 701.7091703 -472 701 C-470.53028926 697.23283763 -468.8497922 693.80946736 -466.83203125 690.30078125 C-466.19273682 689.18574219 -465.55344238 688.07070313 -464.89477539 686.921875 C-464.55527863 686.33341797 -464.21578186 685.74496094 -463.86599731 685.13867188 C-462.80001259 683.29085385 -461.73832075 681.44062495 -460.67749023 679.58984375 C-457.3735704 673.83119099 -454.05265042 668.0826205 -450.70979309 662.34648132 C-449.65969872 660.5444505 -448.61129541 658.74144529 -447.56323242 656.93823242 C-446.25022311 654.68184314 -444.93281805 652.42800487 -443.6105957 650.17700195 C-443.01851318 649.15952881 -442.42643066 648.14205566 -441.81640625 647.09375 C-441.29506104 646.20365234 -440.77371582 645.31355469 -440.23657227 644.39648438 C-439.10979984 642.21279274 -438.54238064 640.37399943 -438 638 C-445.12165186 635.65354816 -452.14914013 634.1534929 -459.5546875 633.02734375 C-460.61865753 632.85876358 -461.68262756 632.69018341 -462.77883911 632.51649475 C-466.14323862 631.98363362 -469.50889961 631.45950137 -472.875 630.9375 C-477.33195983 630.24584821 -481.78742263 629.54547793 -486.2421875 628.83984375 C-487.77188675 628.606959 -487.77188675 628.606959 -489.33248901 628.36936951 C-490.75514572 628.14387169 -490.75514572 628.14387169 -492.20654297 627.91381836 C-493.45369583 627.7208744 -493.45369583 627.7208744 -494.7260437 627.52403259 C-497.06320693 626.98543398 -498.90901728 626.15946172 -501 625 C-499.28424838 613.09435767 -486.31002317 601.33262566 -478.87109375 592.12109375 C-473.31948244 585.23968791 -467.95005261 578.33544596 -463 571 C-473.79513052 566.26452005 -484.87898843 562.4781401 -496.02124023 558.65673828 C-505.21766914 555.49669952 -514.25753863 552.30263618 -523 548 C-521.15272881 543.98864472 -518.5055693 541.24068228 -515.375 538.1875 C-514.55986938 537.383125 -514.55986938 537.383125 -513.72827148 536.5625 C-510.3168965 533.21942334 -506.82810542 530.00389773 -503.19140625 526.90625 C-500.23472851 524.33430929 -497.37142001 521.66637681 -494.5 519 C-490.37157025 515.17174492 -486.21512405 511.39140207 -481.95703125 507.70703125 C-479.6144085 505.66366569 -477.30726578 503.58319141 -475 501.5 C-471.37976277 498.23295665 -467.73016435 495.00479224 -464.05078125 491.8046875 C-461.73911203 489.77041859 -459.4646857 487.6977769 -457.1875 485.625 C-453.78916448 482.55253227 -450.32409477 479.61557378 -446.75 476.75 C-441.67657078 472.6511278 -436.93930819 468.26760012 -432.19458008 463.80004883 C-427.87826283 459.75774597 -423.39523766 456.00426509 -418.77734375 452.30859375 C-415.57557071 449.64720435 -412.53766575 446.84536335 -409.5 444 C-404.73913345 439.54123309 -399.83531923 435.36201964 -394.74609375 431.27734375 C-391.73680948 428.78173531 -388.86061346 426.16234857 -386 423.5 C-381.41242561 419.23079221 -376.66556996 415.24241261 -371.78125 411.3125 C-368.22814914 408.35823636 -364.8597632 405.23086576 -361.47827148 402.08374023 C-358.2670095 399.11284372 -354.97372185 396.30038923 -351.5625 393.5625 C-347.37762693 390.19653735 -343.41685602 386.66823983 -339.5 383 C-334.73908666 378.54127805 -329.83532437 374.36202376 -324.74609375 370.27734375 C-321.73680948 367.78173531 -318.86061346 365.16234857 -316 362.5 C-311.41242561 358.23079221 -306.66556996 354.24241261 -301.78125 350.3125 C-298.75980812 347.8002899 -295.87558227 345.17599173 -293 342.5 C-288.41239887 338.23081848 -283.66557272 334.24241483 -278.78125 330.3125 C-275.75980812 327.8002899 -272.87558227 325.17599173 -270 322.5 C-266.26670522 319.0258285 -262.47629157 315.69931506 -258.5 312.5 C-252.41585695 307.60084993 -246.68532103 302.35192257 -241 297 C-240.52014648 296.56937256 -240.04029297 296.13874512 -239.54589844 295.69506836 C-237.52787327 293.48231587 -236.20525865 291.10532266 -234.734375 288.49609375 C-234.09943115 287.37638184 -233.4644873 286.25666992 -232.81030273 285.10302734 C-232.47505585 284.5065741 -232.13980896 283.91012085 -231.79440308 283.29559326 C-230.37007921 280.76158447 -228.93510114 278.23366239 -227.5009613 275.7052002 C-226.75946655 274.39750414 -226.01855649 273.08947639 -225.2782135 271.78112793 C-221.69987146 265.45870435 -218.07379869 259.16425348 -214.4375 252.875 C-213.19660933 250.72656553 -211.95572392 248.57812803 -210.71484375 246.4296875 C-210.10237793 245.36975586 -209.48991211 244.30982422 -208.85888672 243.21777344 C-205.73675395 237.81329355 -202.61858796 232.40652588 -199.5 227 C-198.25001878 224.8333225 -197.00001879 222.66665583 -195.75 220.5 C-195.13125 219.4275 -194.5125 218.355 -193.875 217.25 C-188.25 207.5 -188.25 207.5 -186.37524414 204.25048828 C-185.1243552 202.08223736 -183.87354148 199.91394303 -182.62280273 197.74560547 C-179.51201665 192.35282085 -176.39995762 186.96077907 -173.28515625 181.5703125 C-167.14801669 170.94613997 -161.0298093 160.31179363 -154.95184326 149.65368652 C-149.09338033 139.38066608 -143.18776607 129.13700015 -137.21411133 118.93041992 C-132.98490249 111.70145819 -128.79945988 104.44818726 -124.625 97.1875 C-118.80316042 87.07046347 -112.88491051 77.01387018 -106.91943359 66.98095703 C-102.49126453 59.53009535 -98.1057237 52.05591875 -93.75 44.5625 C-87.59815766 33.98213843 -81.33034121 23.47441244 -75 13 C-70.75504186 14.86486583 -69.15915036 17.5052093 -66.9375 21.4375 C-66.55899902 22.0869458 -66.18049805 22.7363916 -65.79052734 23.40551758 C-64.51620415 25.59761091 -63.25774965 27.79835946 -62 30 C-60.53155692 32.55147587 -59.06069613 35.10153355 -57.58813477 37.65063477 C-56.62784705 39.31563554 -55.6711791 40.98273034 -54.71850586 42.65209961 C-54.27772705 43.42046143 -53.83694824 44.18882324 -53.3828125 44.98046875 C-52.99496582 45.66004639 -52.60711914 46.33962402 -52.20751953 47.03979492 C-50.99994562 49.07859894 -50.99994562 49.07859894 -49.35107422 51.1262207 C-48 53 -48 53 -48 55 C-42.55515072 50.95126592 -38.62192402 46.04310913 -34.41015625 40.75585938 C-31.6417053 37.30871615 -28.81556444 33.90867093 -26 30.5 C-21.19027274 24.67351515 -21.19027274 24.67351515 -16.41796875 18.81640625 C-11.18760308 12.35859925 -5.88261984 5.88261984 0 0 Z M-76.2265625 48.98828125 C-79.51618222 52.35678591 -81.90752973 56.19741387 -84.375 60.1875 C-84.88901367 61.01064697 -85.40302734 61.83379395 -85.93261719 62.68188477 C-92.20874409 72.82305046 -98.11798449 83.17917067 -104.02490234 93.53808594 C-106.01774326 97.03110005 -108.0177273 100.51993261 -110.01953125 104.0078125 C-118.19613924 118.26339828 -126.27414795 132.57229652 -134.28222656 146.92333984 C-137.18283111 152.11853861 -140.09184112 157.30902746 -143 162.5 C-146.51331302 168.77254671 -150.02581752 175.04554124 -153.53515625 181.3203125 C-164.25485463 200.48381202 -175.04782087 219.60337546 -185.95880127 238.65863037 C-190.76773815 247.05981289 -195.53037296 255.48573914 -200.25 263.9375 C-205.89185638 274.04046915 -211.60397112 284.10059565 -217.36035156 294.13867188 C-220.15574926 299.01688227 -222.94370875 303.89934254 -225.73248291 308.78134155 C-227.441155 311.77236328 -229.15028974 314.76312061 -230.859375 317.75390625 C-231.55143448 318.96500526 -232.24349177 320.17610552 -232.93554688 321.38720703 C-237.01757812 328.53076171 -237.01757812 328.53076171 -238.01811218 330.2816925 C-238.68300304 331.44525405 -239.34788952 332.60881809 -240.01277161 333.77238464 C-241.67402015 336.67961412 -243.33534527 339.58679979 -244.99682617 342.49389648 C-248.00774636 347.76228282 -251.01810181 353.03098785 -254.02565002 358.30130005 C-262.69040615 373.48502164 -271.39454552 388.64544078 -280.14111328 403.78222656 C-283.26324605 409.18670645 -286.38141204 414.59347412 -289.5 420 C-290.74998122 422.1666775 -291.99998121 424.33334417 -293.25 426.5 C-294.178125 428.10875 -294.178125 428.10875 -295.125 429.75 C-312.9375 460.625 -312.9375 460.625 -330.75 491.5 C-331.36883057 492.57266113 -331.98766113 493.64532227 -332.62524414 494.75048828 C-333.87435518 496.91557071 -335.12354129 499.08060982 -336.37280273 501.24560547 C-339.51202309 506.68615706 -342.64990563 512.12747216 -345.78515625 517.5703125 C-351.80747375 528.02206279 -357.84680257 538.46293115 -363.9375 548.875 C-369.67835775 558.69279296 -375.3353209 568.55723027 -380.96850586 578.43701172 C-385.45535358 586.30507295 -389.96769605 594.15801572 -394.5 602 C-399.66838911 610.94549788 -404.81431936 619.90354598 -409.9375 628.875 C-410.26628143 629.45072754 -410.59506287 630.02645508 -410.93380737 630.61962891 C-413.28997773 634.74597832 -415.64505497 638.8729512 -418 643 C-420.50956383 647.39783483 -423.01961322 651.79539165 -425.5305481 656.19244385 C-426.52399735 657.93255917 -427.51677303 659.67305899 -428.50952148 661.41357422 C-432.20301876 667.88213872 -435.93777286 674.3232382 -439.73022461 680.734375 C-441.08148398 682.71252492 -441.08148398 682.71252492 -441 684 C-372.42067183 684.94687782 -303.84795954 685.15144433 -235.26307052 685.13529945 C-225.04269963 685.13294219 -214.82233031 685.13272075 -204.60195923 685.13381577 C-203.86213058 685.13389215 -203.12230193 685.13396854 -202.36005423 685.13404724 C-199.35298475 685.13435883 -196.34591526 685.13467726 -193.33884578 685.135007 C-165.42460993 685.13803089 -137.51037735 685.13534944 -109.59614201 685.1299101 C-85.07678824 685.12516849 -60.55743967 685.12559328 -36.03808594 685.13037109 C-8.15803924 685.13578629 19.72200459 685.13781598 47.60205173 685.13475883 C50.6020209 685.13443836 53.60199006 685.1341255 56.60195923 685.13381577 C57.70906661 685.13369715 57.70906661 685.13369715 58.8385398 685.13357614 C69.02438769 685.13253563 79.21023368 685.13340381 89.39608132 685.13580156 C157.26998221 685.15156337 225.13166353 684.93706112 293 684 C291.52122382 680.20869126 289.82498817 676.76306168 287.796875 673.23046875 C287.15363281 672.10705078 286.51039063 670.98363281 285.84765625 669.82617188 C285.14855234 668.61321505 284.44933056 667.40032616 283.75 666.1875 C283.02454649 664.92393897 282.29928874 663.66026552 281.57421875 662.39648438 C276.52219693 653.60068817 271.4170285 644.83620262 266.29199219 636.08276367 C261.80992366 628.41756602 257.39596222 620.71472895 253 613 C247.46014067 603.27875494 241.86625068 593.59105132 236.21655273 583.93310547 C230.06233258 573.40915375 223.97630004 562.84619863 217.89111328 552.28222656 C214.76319854 546.85340062 211.63146269 541.42677993 208.5 536 C204.73636081 529.47766725 200.97355378 522.95486238 197.21484375 516.4296875 C191.16944841 505.93767906 185.10889781 495.45518324 179 485 C172.25298806 473.45270484 165.56660682 461.87097973 158.89111328 450.28222656 C155.76319852 444.85340058 152.63141552 439.42680719 149.5 434 C148.24998121 431.83334417 146.99998122 429.6666775 145.75 427.5 C144.821875 425.89125 144.821875 425.89125 143.875 424.25 C138.25 414.50000001 138.25 414.50000001 136.37475586 411.24951172 C135.12564482 409.08442929 133.87645871 406.91939018 132.62719727 404.75439453 C129.48797691 399.31384294 126.35009437 393.87252784 123.21484375 388.4296875 C117.19252625 377.97793721 111.15319743 367.53706885 105.0625 357.125 C99.32246579 347.30861542 93.66676663 337.44534506 88.03369141 327.56738281 C81.68076105 316.42847496 75.27453369 305.3206742 68.85888672 294.21777344 C65.11021966 287.72874904 61.36691333 281.2366305 57.62255859 274.74511719 C54.51181661 269.35251686 51.39986673 263.96062178 48.28515625 258.5703125 C41.46595464 246.76540342 34.67806396 234.94349487 27.92565918 223.10031128 C22.70164866 213.9409069 17.4072061 204.82455631 12.07788086 195.72607422 C7.60443788 188.07351207 3.23530727 180.36567484 -1.10839844 172.63891602 C-4.98346603 165.76026079 -8.94235343 158.93450538 -12.9375 152.125 C-18.32813772 142.93342481 -23.56806904 133.66665367 -28.74975586 124.35595703 C-32.74944037 117.18676384 -36.84341574 110.07924603 -41 103 C-45.82534832 94.78116347 -50.54734551 86.51231477 -55.1875 78.1875 C-59.52264143 70.4143312 -63.87505721 62.65284171 -68.3125 54.9375 C-68.77487061 54.12756592 -69.23724121 53.31763184 -69.71362305 52.4831543 C-70.77976593 50.63818189 -71.88527312 48.81603079 -73 47 C-74.37320205 46.8889887 -74.37320205 46.8889887 -76.2265625 48.98828125 Z " fill="#FAFAFA" transform="translate(523,0)"/>
<path d="M0 0 C13.6997614 10.17761907 18.55268073 23.78194037 22.33984375 39.73828125 C22.9827624 42.07923793 23.65835222 44.40811588 24.33984375 46.73828125 C24.54552979 46.22031982 24.75121582 45.7023584 24.96313477 45.16870117 C33.68603511 23.37716943 44.25246216 5.45736737 66.65234375 -4.19921875 C80.95147932 -9.8903155 96.07349004 -10.3975806 110.33984375 -4.26171875 C122.16397097 1.5089875 130.52361587 10.48423344 135.5625 22.703125 C146.65483611 56.14883805 143.61111878 94.33717339 143.47717285 129.01287842 C143.45639894 134.97406575 143.44751298 140.93527098 143.4375 146.89648438 C143.41630368 158.51047009 143.38124587 170.12434998 143.33984375 181.73828125 C132.44984375 181.73828125 121.55984375 181.73828125 110.33984375 181.73828125 C110.3147876 178.40420166 110.28973145 175.07012207 110.26391602 171.63500977 C110.18007225 160.56296609 110.09143672 149.4909644 110.00050449 138.41897678 C109.94551316 131.71252028 109.89220098 125.00605881 109.8425293 118.29956055 C109.79444619 111.81559294 109.74209399 105.33167202 109.686903 98.84776115 C109.66667652 96.38612992 109.6479338 93.92448599 109.63076973 91.4628315 C110.85193146 54.97065258 110.85193146 54.97065258 94.546875 23.875 C88.27872168 17.80654006 82.75592127 16.40821102 74.15234375 16.5234375 C65.41381477 17.19096402 57.59028118 19.85303506 50.33984375 24.73828125 C49.74816406 25.13402344 49.15648437 25.52976562 48.546875 25.9375 C42.41301095 30.61158862 38.41445457 37.30911108 34.33984375 43.73828125 C33.54126953 44.97771484 33.54126953 44.97771484 32.7265625 46.2421875 C24.65921037 60.30650936 27.00066624 80.18886075 26.92578125 95.80078125 C26.90703592 98.2889874 26.8874601 100.77718743 26.86709595 103.26538086 C26.816124 109.76216998 26.7763129 116.25897963 26.73895264 122.75585938 C26.69869202 129.40630162 26.64770117 136.05665606 26.59765625 142.70703125 C26.50131144 155.71739506 26.41776983 168.72779408 26.33984375 181.73828125 C15.44984375 181.73828125 4.55984375 181.73828125 -6.66015625 181.73828125 C-6.6852124 178.7228418 -6.71026855 175.70740234 -6.73608398 172.60058594 C-6.82010354 162.56233211 -6.90871332 152.52412241 -6.99949551 142.48592758 C-7.05432082 136.40844052 -7.10766922 130.33094844 -7.1574707 124.25341797 C-7.20571882 118.37243345 -7.25807053 112.49149767 -7.313097 106.61057281 C-7.33325077 104.38308194 -7.35200275 102.15557787 -7.36923027 99.92806244 C-7.45308452 89.19830355 -7.59343698 78.4815657 -8.10961914 67.76269531 C-8.14660384 66.97717159 -8.18358854 66.19164787 -8.22169399 65.3823204 C-9.01672024 50.50921447 -11.12917932 34.4515831 -22.47265625 23.61328125 C-30.47644055 17.54515304 -38.71580117 15.52524683 -48.66015625 16.73828125 C-63.8106856 19.85007162 -74.07645451 29.7099524 -82.41015625 42.17578125 C-88.37836852 51.83732667 -89.75380557 61.40185427 -90.1875 72.578125 C-90.2494883 74.16052223 -90.2494883 74.16052223 -90.31272888 75.77488708 C-90.97854132 94.84965741 -91.01861425 113.94569907 -91.19238281 133.02972412 C-91.24333212 138.53481729 -91.29862802 144.03986681 -91.35351562 149.54492188 C-91.45988954 160.27600517 -91.56117974 171.00712718 -91.66015625 181.73828125 C-101.89015625 181.73828125 -112.12015625 181.73828125 -122.66015625 181.73828125 C-122.66015625 120.68828125 -122.66015625 59.63828125 -122.66015625 -3.26171875 C-112.10015625 -3.26171875 -101.54015625 -3.26171875 -90.66015625 -3.26171875 C-90.66015625 2.72961499 -90.69349769 8.46080412 -91.09765625 14.3984375 C-91.16424438 15.41060585 -91.16424438 15.41060585 -91.23217773 16.44322205 C-91.37174531 18.56262863 -91.51543755 20.68172062 -91.66015625 22.80078125 C-92.51783684 35.25709473 -92.51783684 35.25709473 -92.66015625 47.73828125 C-92.23605469 46.578125 -91.81195312 45.41796875 -91.375 44.22265625 C-84.13308145 24.76117511 -74.17657173 7.46248194 -55.66015625 -3.26171875 C-37.82647693 -11.31867823 -16.59025417 -10.83609795 0 0 Z " fill="#FAFAFA" transform="translate(1549.66015625,518.26171875)"/>
<path d="M0 0 C1.03060547 0.88751953 1.03060547 0.88751953 2.08203125 1.79296875 C2.67628906 2.29183594 3.27054688 2.79070312 3.8828125 3.3046875 C21.96613099 19.8083138 28.02024795 45.74921643 29.20629883 69.25585938 C30.17182461 99.6504915 25.966441 130.9791533 7.08203125 155.79296875 C6.56253906 156.47617187 6.04304688 157.159375 5.5078125 157.86328125 C-3.62012257 169.05510839 -16.6677402 175.36453168 -30.8515625 177.51171875 C-48.56090257 179.13601491 -67.24318267 177.38480307 -81.85546875 166.29296875 C-85.05875222 163.6187734 -88.07894902 160.85612162 -90.91796875 157.79296875 C-91.43746094 157.26703125 -91.95695312 156.74109375 -92.4921875 156.19921875 C-100.18651755 148.03804171 -104.98794908 137.76232117 -109.91796875 127.79296875 C-109.83756348 128.77015869 -109.7571582 129.74734863 -109.67431641 130.75415039 C-108.11378893 149.83785396 -106.70650611 168.91961806 -105.73046875 188.04296875 C-105.68794983 188.85968048 -105.64543091 189.67639221 -105.60162354 190.51785278 C-105.48062104 192.86459563 -105.36426541 195.21151405 -105.25 197.55859375 C-105.21577438 198.23117722 -105.18154877 198.90376068 -105.14628601 199.59672546 C-104.8790019 205.34671296 -104.91796875 211.01520356 -104.91796875 216.79296875 C-116.46796875 216.79296875 -128.01796875 216.79296875 -139.91796875 216.79296875 C-140.05059013 165.48322921 -139.86988524 114.17736451 -139.52841121 62.86885369 C-139.49054471 57.15271333 -139.45523401 51.43656069 -139.42092896 45.72039795 C-139.37850788 38.6731636 -139.3322721 31.62596621 -139.28119051 24.57878911 C-139.25472606 20.92177203 -139.22979502 17.26476137 -139.20887756 13.60770798 C-139.18584294 9.60267702 -139.15499642 5.59774513 -139.12329102 1.59277344 C-139.11753587 0.40193335 -139.11178072 -0.78890675 -139.10585117 -2.0158329 C-139.09606204 -3.08900953 -139.08627291 -4.16218616 -139.07618713 -5.2678833 C-139.06973458 -6.20371876 -139.06328203 -7.13955421 -139.05663395 -8.10374832 C-138.91796875 -10.20703125 -138.91796875 -10.20703125 -137.91796875 -11.20703125 C-135.54228355 -11.29542795 -133.19588201 -11.3223343 -130.8203125 -11.3046875 C-129.75702477 -11.30256508 -129.75702477 -11.30256508 -128.67225647 -11.30039978 C-126.39995163 -11.29478568 -124.127744 -11.28223088 -121.85546875 -11.26953125 C-120.31836079 -11.26451806 -118.7812513 -11.25995484 -117.24414062 -11.25585938 C-113.46871233 -11.24481167 -109.69335704 -11.22753766 -105.91796875 -11.20703125 C-105.6836899 -2.35324317 -106.69233324 6.34991581 -107.63623047 15.13745117 C-108.54994258 23.71204888 -109.137474 32.16214414 -108.91796875 40.79296875 C-108.42167969 39.76558594 -107.92539063 38.73820312 -107.4140625 37.6796875 C-96.87382081 16.07349975 -84.67260867 -0.53483935 -61.91796875 -10.20703125 C-40.26950406 -17.54694606 -17.86465086 -14.67341725 0 0 Z M-93.91796875 29.79296875 C-105.4281264 44.04449754 -108.15183539 57.03247755 -108.16796875 74.91796875 C-108.16897583 75.68352081 -108.16998291 76.44907288 -108.17102051 77.23782349 C-108.15156735 99.05024418 -106.40272181 120.85153156 -90.60546875 137.54296875 C-78.82864446 148.48232998 -65.74755432 154.22154225 -49.68359375 154.0703125 C-38.33183696 153.23423913 -27.18154198 148.54374984 -19.23046875 140.29296875 C-11.6499247 130.88880326 -7.57887881 119.42609315 -4.91796875 107.79296875 C-4.69238281 106.81585938 -4.46679688 105.83875 -4.234375 104.83203125 C0.38819265 80.53964127 -2.62332865 51.81246925 -15.92578125 30.57421875 C-23.08726234 20.57622947 -32.40246412 13.30873203 -44.4296875 10.12890625 C-64.58405758 7.40790809 -80.8235701 14.67924312 -93.91796875 29.79296875 Z " fill="#FAFAFA" transform="translate(1734.91796875,149.20703125)"/>
<path d="M0 0 C0.70592285 0.15299561 1.4118457 0.30599121 2.13916016 0.46362305 C9.07976036 2.14188974 15.19363956 5.11956166 20.75 9.625 C21.44351562 10.18058594 22.13703125 10.73617187 22.8515625 11.30859375 C23.60179687 11.92863281 24.35203125 12.54867187 25.125 13.1875 C26.10984375 13.95964844 27.0946875 14.73179687 28.109375 15.52734375 C42.19613121 27.32126982 45.97914157 45.92904732 47.65722656 63.30566406 C49.17172178 80.70131646 49.73507972 98.09913339 50.18945312 115.54650879 C50.2697315 118.55095919 50.35804995 121.55515093 50.44630814 124.55937576 C51.0266134 144.44451856 51.20687163 164.2926935 51.125 184.1875 C39.905 184.1875 28.685 184.1875 17.125 184.1875 C17.53284038 178.81631909 17.94141662 173.44520408 18.35180664 168.07421875 C18.49090055 166.25100871 18.62958082 164.42776706 18.76782227 162.60449219 C18.96779621 159.96801254 19.16930921 157.33165412 19.37109375 154.6953125 C19.4315538 153.89384796 19.49201385 153.09238342 19.55430603 152.26663208 C19.9928218 146.56427065 20.53489399 140.87610509 21.125 135.1875 C18.64837956 139.37870383 16.45444274 143.59680841 14.375 148 C5.47697216 165.84054582 -10.88629412 178.53406618 -29.5 185.15625 C-48.85542977 191.0704091 -67.77763338 191.11094591 -85.9375 181.875 C-96.2871365 175.86223219 -102.65858256 167.84117779 -106.296875 156.4609375 C-109.18079459 145.12011859 -108.9618633 133.16872399 -104.875 122.1875 C-104.61976562 121.49398437 -104.36453125 120.80046875 -104.1015625 120.0859375 C-98.45463479 107.08246176 -86.79157716 99.83001663 -74.203125 94.6875 C-57.87817314 88.90144111 -41.11266598 87.01254189 -23.8671875 87.08984375 C-22.05723801 87.09196617 -22.05723801 87.09196617 -20.21072388 87.09413147 C-16.39045641 87.09968918 -12.57024948 87.11223372 -8.75 87.125 C-6.14583419 87.13002047 -3.54166744 87.13458242 -0.9375 87.13867188 C5.41668701 87.14964473 11.77083918 87.16634026 18.125 87.1875 C17.66844497 83.02622746 17.18912082 78.86832646 16.69067383 74.71191406 C16.52492426 73.30472101 16.36487001 71.89684261 16.21118164 70.48828125 C14.62036337 55.97918949 11.79079932 41.22462983 -0.0078125 31.4140625 C-8.66165514 25.23274633 -18.59091175 22.3058771 -29.19921875 23.58984375 C-44.6067987 26.45439932 -58.07746502 34.08030432 -67.4140625 46.8359375 C-71.16219626 52.86902981 -73.14267723 59.73670863 -75.26171875 66.47265625 C-75.875 68.1875 -75.875 68.1875 -76.875 69.1875 C-82.91911501 69.49275833 -88.30648537 68.71491634 -94.1875 67.375 C-94.98478516 67.20935547 -95.78207031 67.04371094 -96.60351562 66.87304688 C-97.36986328 66.70224609 -98.13621094 66.53144531 -98.92578125 66.35546875 C-99.61325439 66.20360107 -100.30072754 66.0517334 -101.0090332 65.89526367 C-103.29145089 65.02953963 -104.41128747 64.13969139 -105.875 62.1875 C-105.64613484 56.61844789 -104.30395087 51.70101776 -102.3125 46.5 C-102.04928955 45.81083496 -101.7860791 45.12166992 -101.51489258 44.41162109 C-93.95793614 25.41965237 -81.04598 11.7577312 -62.3671875 3.5390625 C-42.46853595 -4.16220533 -20.73836033 -4.53610485 0 0 Z M-69.203125 114.171875 C-75.92819374 121.46207557 -78.05007834 129.39561868 -77.875 139.1875 C-76.85628369 146.71949827 -73.6216285 152.2421942 -67.875 157.1875 C-65.30844518 158.85229232 -62.72370812 160.08420935 -59.875 161.1875 C-58.864375 161.579375 -57.85375 161.97125 -56.8125 162.375 C-43.49646856 166.05815763 -30.42825237 164.31501712 -18.1875 158 C-4.68946222 150.25202885 11.01622101 137.48421223 17.1328125 122.76171875 C18.37888712 117.5404906 18.179538 112.19422875 18.15234375 106.859375 C18.15036987 106.11993652 18.148396 105.38049805 18.1463623 104.61865234 C18.14124408 102.80826146 18.13339866 100.99787864 18.125 99.1875 C-28.05347778 96.77038468 -28.05347778 96.77038468 -69.203125 114.171875 Z " fill="#FAFAFA" transform="translate(1503.875,138.8125)"/>
<path d="M0 0 C15.25546412 13.45105438 21.18702561 35.24258211 22.44390869 54.81474304 C22.66067713 58.6877078 22.83349439 62.56209373 23 66.4375 C23.0587027 67.72337006 23.0587027 67.72337006 23.11859131 69.03521729 C24.00373612 88.47373468 24.55979675 107.92508323 25.125 127.375 C25.14733704 128.14052563 25.16967407 128.90605125 25.19268799 129.69477463 C25.322927 134.16773381 25.45053421 138.6407565 25.57452011 143.11389351 C25.63085178 145.14040141 25.68846492 147.16687356 25.74612427 149.19334412 C25.77979095 150.43971146 25.81345764 151.6860788 25.84814453 152.97021484 C25.87764191 154.04266449 25.90713928 155.11511414 25.93753052 156.22006226 C26.02444885 161.47936454 26 166.73997953 26 172 C14.78 172 3.56 172 -8 172 C-7 155.1875 -7 155.1875 -6.68359375 149.95385742 C-6.21184291 141.96154032 -5.84060768 134.01057091 -6 126 C-6.61746094 127.09957031 -7.23492188 128.19914063 -7.87109375 129.33203125 C-20.70480326 151.87918756 -36.84570639 168.11652993 -62.1953125 175.30859375 C-63.12085937 175.53675781 -64.04640625 175.76492188 -65 176 C-65.7528125 176.19078125 -66.505625 176.3815625 -67.28125 176.578125 C-83.98240272 179.16968318 -101.99228455 176.90789629 -116 167 C-125.50549429 159.26296976 -131.18511346 149.92187241 -134 138 C-134.28455175 135.22237917 -134.33426335 132.47825587 -134.3125 129.6875 C-134.30758545 128.93984375 -134.3026709 128.1921875 -134.29760742 127.421875 C-134.03304413 114.89649904 -128.96798185 104.36267188 -120.4921875 95.19921875 C-115.56015967 90.84697476 -109.82447683 87.96424267 -104 85 C-103.0925 84.5153125 -102.185 84.030625 -101.25 83.53125 C-85.95934093 75.88592046 -68.90613753 74.83240287 -52.1171875 74.90234375 C-50.82177032 74.9037587 -49.52635315 74.90517365 -48.19168091 74.90663147 C-44.78216549 74.91041189 -41.37269408 74.9202028 -37.9631958 74.93133545 C-34.47026159 74.94164692 -30.97732012 74.94614975 -27.484375 74.95117188 C-20.65623216 74.96183005 -13.8281182 74.97885126 -7 75 C-7.48074457 71.08757394 -7.97799974 67.17760142 -8.48925781 63.26904297 C-8.7433476 61.30151251 -8.98512232 59.33240399 -9.2265625 57.36328125 C-11.0684339 43.4075633 -14.47173385 28.34693 -26.1484375 19.2421875 C-37.45897174 11.65410756 -50.43607744 10.19587313 -63.64453125 12.6875 C-76.35861344 16.30716753 -85.4608602 22.30153305 -92.08789062 33.90478516 C-95.82445595 40.78078518 -98.94517371 47.4432323 -101 55 C-102.67639311 56.67639311 -104.62845737 56.25231919 -106.9375 56.3125 C-112.70917334 56.2776469 -118.07514721 55.35812253 -123.6875 54.125 C-124.48986084 53.95137939 -125.29222168 53.77775879 -126.11889648 53.59887695 C-128.09739232 53.13774621 -130.05213671 52.57698869 -132 52 C-133 50 -133 50 -132.59790039 48.17504883 C-127.10585722 31.93840315 -121.53544951 17.17920228 -109 5 C-108.38769531 4.36707031 -107.77539062 3.73414063 -107.14453125 3.08203125 C-81.04993159 -22.12234753 -27.68392246 -21.34873017 0 0 Z M-68.6875 90.125 C-69.4722168 90.34236816 -70.25693359 90.55973633 -71.06542969 90.78369141 C-82.16833142 94.02599177 -93.63155886 98.5777717 -100.078125 108.69140625 C-103.59548334 116.09384675 -103.39447484 126.82160049 -100.875 134.5 C-96.44709431 142.76542395 -90.74348057 147.69207082 -81.80859375 150.75 C-67.27918943 154.49281614 -53.25710567 150.81197011 -40.28515625 143.9453125 C-35.41738698 141.06285222 -31.17988757 137.80177274 -27 134 C-26.13375 133.21496094 -25.2675 132.42992187 -24.375 131.62109375 C-15.00967177 122.71567004 -7.24708922 111.53764377 -6.90234375 98.23046875 C-6.90891785 96.88277758 -6.92073556 95.53510293 -6.9375 94.1875 C-6.94201172 93.49462891 -6.94652344 92.80175781 -6.95117188 92.08789062 C-6.96286844 90.39188932 -6.98080076 88.69593297 -7 87 C-11.67325471 86.97480203 -16.34646772 86.95691151 -21.01977539 86.94506836 C-22.60116263 86.94011804 -24.18254549 86.93335608 -25.76391602 86.92456055 C-47.44412527 86.51206147 -47.44412527 86.51206147 -68.6875 90.125 Z " fill="#FAFAFA" transform="translate(2180,151)"/>
<path d="M0 0 C14.89912529 13.68240166 21.58725444 33.03593585 22.62225342 52.81144714 C22.76045949 56.14865849 22.87862905 59.48594555 22.98828125 62.82421875 C23.03045273 64.08289261 23.07262421 65.34156647 23.11607361 66.63838196 C23.59029341 81.56076081 23.80642017 96.48650983 24.00488281 111.41467285 C24.04531581 114.38763912 24.08933337 117.36054805 24.13331032 120.33346367 C24.39626259 138.20791562 24.54002878 156.07630502 24.47265625 173.953125 C22.88501188 173.95715836 21.29736451 173.96002342 19.7097168 173.96240234 C18.38353584 173.9649855 18.38353584 173.9649855 17.03056335 173.96762085 C-3.62993247 173.85053628 -3.62993247 173.85053628 -7.52734375 169.953125 C-7.48510843 167.76107405 -7.36849637 165.57041435 -7.22265625 163.3828125 C-7.1575032 162.37288742 -7.1575032 162.37288742 -7.09103394 161.34255981 C-6.94974658 159.170724 -6.80114433 156.99945772 -6.65234375 154.828125 C-6.55941476 153.41800037 -6.46696167 152.00784429 -6.375 150.59765625 C-6.14506298 147.09012685 -5.90906242 143.58303747 -5.67102051 140.0760498 C-5.43015123 136.51703735 -5.19380498 132.95772434 -4.95703125 129.3984375 C-4.81380208 127.25 -4.67057292 125.1015625 -4.52734375 122.953125 C-4.81343506 123.46584961 -5.09952637 123.97857422 -5.39428711 124.50683594 C-16.98973399 145.18372384 -29.40766062 165.75719744 -53.52734375 172.953125 C-73.83259989 178.18736881 -94.6186984 177.87491748 -113.39453125 167.8359375 C-123.88494748 161.53122351 -130.48434131 152.82991812 -133.52734375 140.953125 C-136.38008541 129.02347805 -134.71583886 115.7590507 -128.46484375 105.203125 C-116.88899901 88.58696453 -98.07405004 80.10599414 -78.65136719 76.5949707 C-67.01411081 74.62224188 -55.43861512 73.79515171 -43.63671875 73.85546875 C-42.56609192 73.8568837 -41.49546509 73.85829865 -40.39239502 73.85975647 C-37.02068109 73.86529019 -33.64903712 73.87782966 -30.27734375 73.890625 C-27.97135514 73.89564859 -25.66536546 73.90020998 -23.359375 73.90429688 C-17.74867462 73.91523778 -12.13801419 73.93190818 -6.52734375 73.953125 C-7.27250613 69.34592996 -8.03632734 64.74232251 -8.81616211 60.14086914 C-9.07790629 58.58146369 -9.33489887 57.02125175 -9.58666992 55.46020508 C-12.49163101 36.23321095 -12.49163101 36.23321095 -23.22265625 20.6015625 C-34.1946247 12.75381557 -46.34109696 10.91734731 -59.52734375 11.953125 C-72.93137684 14.3353941 -82.39901229 21.53770557 -90.59375 32.171875 C-96.13778645 40.14632743 -98.91809238 48.65311173 -101.52734375 57.953125 C-107.14175847 57.46063248 -112.6722632 56.65959714 -118.21484375 55.640625 C-119.45621094 55.41761719 -120.69757812 55.19460938 -121.9765625 54.96484375 C-125.93966548 53.83564279 -128.25430319 52.39156535 -131.52734375 49.953125 C-131.06110747 43.31418304 -129.76442774 38.1572286 -126.96484375 32.140625 C-126.42585449 30.96669189 -126.42585449 30.96669189 -125.87597656 29.76904297 C-117.27933137 11.51337241 -104.7003847 -2.47805925 -85.86328125 -10.12890625 C-59.68022762 -18.35670793 -21.81907066 -17.67108659 0 0 Z M-96.96484375 104.015625 C-101.4434128 109.88723733 -104.01056514 118.20141795 -103.65234375 125.578125 C-102.0898622 133.99386719 -97.21441048 141.00328368 -90.84765625 146.515625 C-83.97378262 150.77418644 -77.75413057 151.47759518 -69.83984375 151.390625 C-68.86813232 151.38232666 -67.8964209 151.37402832 -66.89526367 151.36547852 C-49.12332082 150.94942287 -37.04745365 142.98031719 -24.52734375 130.953125 C-23.22216797 129.74269531 -23.22216797 129.74269531 -21.890625 128.5078125 C-11.04621556 118.16590932 -6.5083731 108.81393929 -5.96875 93.84375 C-6.245382 90.82521687 -6.245382 90.82521687 -8.6015625 89.13671875 C-32.49487932 79.47093104 -78.67308308 85.58735865 -96.96484375 104.015625 Z " fill="#FAFAFA" transform="translate(2523.52734375,526.046875)"/>
<path d="M0 0 C16.90990263 13.65716977 27.91807371 30.55226101 32 52 C32.17587646 52.90540527 32.35175293 53.81081055 32.53295898 54.74365234 C34.01327343 63.19638604 34.34077226 71.44657215 34.31567383 80.00048828 C34.31252272 82.23390026 34.33604514 84.46596991 34.36132812 86.69921875 C34.46898686 111.16647224 28.40483543 136.96403778 11.0612793 155.06396484 C-0.1003871 166.25448269 -13.70367751 172.50118601 -29 176 C-29.97710938 176.22558594 -30.95421875 176.45117188 -31.9609375 176.68359375 C-55.12456495 181.09137063 -81.54878779 178.64383586 -101.9140625 166.22265625 C-120.85307001 153.17874826 -131.83501348 135.5295031 -136.59106445 113.22851562 C-138.19184474 104.25675012 -138.33930647 95.37421465 -138.31567383 86.29052734 C-138.31252181 83.76746004 -138.33603505 81.24557905 -138.36132812 78.72265625 C-138.46499312 52.25481913 -132.01335574 26.44981728 -113 7 C-83.49985081 -19.22690102 -32.96325527 -22.4169053 0 0 Z M-90 23 C-105.43889509 41.94224374 -106.67353338 64.39704761 -106 88 C-105.98211426 88.63905273 -105.96422852 89.27810547 -105.94580078 89.93652344 C-105.27784077 110.77492559 -100.800646 126.69726719 -86 142 C-74.94374146 151.43623274 -63.90897724 153.18344782 -49.75 153.25 C-48.66847656 153.270625 -47.58695313 153.29125 -46.47265625 153.3125 C-34.29065969 153.37127924 -24.05366503 150.21274767 -14.8046875 142.06640625 C0.49388725 126.21522138 3.39468532 101.03948212 3.30029297 79.96166992 C2.88190062 59.02886001 -2.87910948 38.78056177 -17.375 23.125 C-36.37232165 5.46309098 -71.37910483 4.58056737 -90 23 Z " fill="#FAFAFA" transform="translate(1360,524)"/>
<path d="M0 0 C0.71353638 -0.00067474 1.42707275 -0.00134949 2.16223145 -0.00204468 C23.57711746 0.03011071 41.6081828 2.3348778 58.75 16.25 C59.6059375 16.9409375 60.461875 17.631875 61.34375 18.34375 C77.39578952 32.01770959 87.57741383 51.0599433 89.54711914 72.03759766 C89.96019233 78.57817163 89.97526738 85.12642246 89.99023438 91.67822266 C89.99987398 94.21681333 90.03094872 96.75456929 90.0625 99.29296875 C90.22429264 124.22099205 85.59498124 149.05001934 67.58984375 167.46484375 C48.87747229 185.81686693 27.15030914 191.71264699 1.5 191.46484375 C-21.64052499 190.94099328 -43.38061845 184.57275352 -59.90136719 167.68798828 C-70.94954977 155.9077936 -77.0672247 140.89377861 -80.25 125.25 C-80.42660156 124.40211914 -80.60320312 123.55423828 -80.78515625 122.68066406 C-82.37611068 114.25712857 -82.64932309 105.91989655 -82.625 97.375 C-82.62445618 96.6537796 -82.62391235 95.9325592 -82.62335205 95.18948364 C-82.52610869 67.01185798 -76.51526695 41.84967729 -56.25 21.25 C-55.48945312 20.4765625 -54.72890625 19.703125 -53.9453125 18.90625 C-38.31141115 3.93871166 -21.15377186 0.01788172 0 0 Z M-36.703125 39.9140625 C-52.77589913 59.63973985 -51.84805409 92.06895241 -49.52294922 116.10351562 C-47.63031469 130.98727484 -39.90219497 144.93253204 -29.25 155.25 C-28.49783203 156.01570313 -28.49783203 156.01570313 -27.73046875 156.796875 C-16.75004681 167.04948799 -1.32800505 167.88374991 12.82421875 167.55859375 C24.58424193 167.01637726 34.45707339 162.65574801 42.7109375 154.25390625 C57.93144298 136.14216938 61.04845719 108.49648636 59.5078125 85.66015625 C57.63776659 66.25365939 51.00367836 48.92893327 36.75 35.25 C14.11291809 16.63491535 -17.1875263 17.56555432 -36.703125 39.9140625 Z " fill="#FAFAFA" transform="translate(1867.25,135.75)"/>
<path d="M0 0 C10.89 0 21.78 0 33 0 C33.0501123 3.46459717 33.10022461 6.92919434 33.15185547 10.4987793 C33.31976487 22.02191152 33.49691942 33.54489171 33.67867851 45.06781292 C33.7885201 52.04539314 33.89533374 59.02299349 33.99462891 66.00073242 C34.09069117 72.75065524 34.19570739 79.50039408 34.3058815 86.25010109 C34.34624257 88.80887269 34.38373996 91.36769133 34.41814804 93.92654991 C34.5803437 105.86146689 34.80017248 117.77943005 35.78955078 129.67895508 C35.87851026 130.90799702 35.87851026 130.90799702 35.96926689 132.1618681 C36.89915306 141.85976235 41.02807316 149.30148205 48 156 C57.06866247 163.03284028 67.0219929 162.95898141 78 162 C97.68939841 158.24642747 110.55826312 144.23063991 122 129 C122.53592175 128.38237667 123.07184351 127.76475334 123.62400532 127.12841415 C125.33008869 124.48941268 125.38303018 122.90038738 125.39872742 119.77349854 C125.41753464 118.18759666 125.41753464 118.18759666 125.4367218 116.56965637 C125.43456917 114.83796455 125.43456917 114.83796455 125.43237305 113.07128906 C125.4425647 111.85150864 125.45275635 110.63172821 125.46325684 109.37498474 C125.48826951 106.03429105 125.50011194 102.69403703 125.50611091 99.3532877 C125.51549313 95.86051756 125.54169635 92.36787465 125.56611633 88.87518311 C125.60978933 82.26318045 125.63833131 75.65120247 125.66143972 69.03909945 C125.68848716 61.51066083 125.7323989 53.98235014 125.77772844 46.45400286 C125.87058622 30.96938663 125.94003539 15.48478385 126 0 C136.56 0 147.12 0 158 0 C158 61.05 158 122.1 158 185 C147.11 185 136.22 185 125 185 C125.40791682 179.2198956 125.81651883 173.43984759 126.22680664 167.65991211 C126.36587094 165.69802582 126.50455079 163.73611224 126.64282227 161.77416992 C128.1179629 140.85060478 128.1179629 140.85060478 129 132 C128.73896484 132.52319824 128.47792969 133.04639648 128.20898438 133.58544922 C118.43063493 153.04367962 118.43063493 153.04367962 111 161 C110.25363281 161.825 109.50726562 162.65 108.73828125 163.5 C95.72036957 177.25161041 79.62293326 186.65067578 60.4140625 187.30078125 C58.48446876 187.32020062 56.55465855 187.32376855 54.625 187.3125 C53.61348877 187.30686035 52.60197754 187.3012207 51.55981445 187.29541016 C39.07635743 187.09239443 28.58578146 184.74124118 19.03515625 176.25390625 C-4.68087009 151.29239932 -0.18426545 103.21808873 -0.09765625 71.2890625 C-0.09578397 69.21300288 -0.09436391 67.1369428 -0.09336853 65.06088257 C-0.08960701 59.67875887 -0.07983368 54.29666352 -0.06866455 48.91455078 C-0.058311 43.38965233 -0.05384149 37.86474917 -0.04882812 32.33984375 C-0.03820356 21.55988158 -0.02066098 10.77994761 0 0 Z " fill="#FAFAFA" transform="translate(1735,515)"/>
<path d="M0 0 C14.21775903 15.08601912 14.26824981 40.60097194 15.22265625 60.06640625 C15.26340271 60.8662796 15.30414917 61.66615295 15.34613037 62.49026489 C17.20540415 99.71850818 17.45806698 137.10798234 17.16015625 174.37890625 C13.85803345 175.47961385 11.21932346 175.58517697 7.7421875 175.6953125 C6.61272705 175.73342041 5.4832666 175.77152832 4.31958008 175.81079102 C2.87060634 175.85435829 1.42163155 175.89789079 -0.02734375 175.94140625 C-2.49130196 176.01914488 -4.95524991 176.09720917 -7.41918945 176.17553711 C-9.55940755 176.24332682 -11.69962565 176.31111654 -13.83984375 176.37890625 C-14.63096973 156.75362714 -15.07818021 137.14334425 -15.33984375 117.50390625 C-15.55143309 101.66634508 -15.80872647 85.83460602 -16.32421875 70.00390625 C-16.36365601 68.76980011 -16.40309326 67.53569397 -16.44372559 66.26419067 C-17.04553552 48.82905669 -18.34914026 30.92749741 -31.390625 17.8203125 C-37.99257365 12.51039198 -46.9299731 10.79076913 -55.2421875 11.09375 C-72.95680083 13.03836169 -85.43421891 22.17902506 -97.125 35.08203125 C-97.52389435 35.58565186 -97.9227887 36.08927246 -98.33377075 36.6081543 C-99.83984375 38.37890625 -99.83984375 38.37890625 -102.03512573 40.31567383 C-111.90406044 50.46189965 -110.09842012 63.74583338 -109.95431828 77.03869915 C-109.92594901 80.53812732 -109.94892813 84.03723505 -109.96617126 87.53668213 C-109.99108036 94.14525571 -109.97064065 100.75285786 -109.93339771 107.36134171 C-109.89320155 114.89240422 -109.90433519 122.42312718 -109.91951382 129.95424986 C-109.94956755 145.42958551 -109.90925591 160.90364847 -109.83984375 176.37890625 C-120.39984375 176.37890625 -130.95984375 176.37890625 -141.83984375 176.37890625 C-141.83984375 115.32890625 -141.83984375 54.27890625 -141.83984375 -8.62109375 C-130.94984375 -8.62109375 -120.05984375 -8.62109375 -108.83984375 -8.62109375 C-108.98421875 -6.00558594 -109.12859375 -3.39007812 -109.27734375 -0.6953125 C-109.41705402 1.87309032 -109.55574216 4.44154648 -109.69433594 7.01000977 C-109.79027559 8.77797156 -109.8872569 10.54587717 -109.98535156 12.3137207 C-110.76805239 26.3367985 -110.76805239 26.3367985 -110.83984375 40.37890625 C-110.02193359 38.72955078 -110.02193359 38.72955078 -109.1875 37.046875 C-104.58689521 27.95284797 -99.81008366 19.90968993 -92.83984375 12.37890625 C-92.14375 11.60289062 -91.44765625 10.826875 -90.73046875 10.02734375 C-80.89231894 -0.42120222 -67.24314052 -10.20666828 -52.83984375 -12.62109375 C-52.13988281 -12.74355469 -51.43992187 -12.86601562 -50.71875 -12.9921875 C-32.65654384 -15.45936912 -13.96017681 -12.30036811 0 0 Z " fill="#FAFAFA" transform="translate(2077.83984375,523.62109375)"/>
<path d="M0 0 C0.75925781 0.59554687 1.51851562 1.19109375 2.30078125 1.8046875 C15.99740575 13.20671342 26.44965694 31.04691244 28.4375 48.9375 C28 52 28 52 26.2890625 53.6171875 C19.55824649 57.68324359 9.65108421 57.79019394 2 57 C-1.52049771 55.67981336 -2.58471084 54.66446265 -4.5625 51.5 C-5.37267804 49.5273926 -6.15272699 47.53964754 -6.82421875 45.515625 C-9.20703603 38.39733542 -12.36873057 32.89701891 -17 27 C-17.5465625 26.27683594 -18.093125 25.55367187 -18.65625 24.80859375 C-25.75496231 15.9854301 -34.89974452 11.64397909 -46 10 C-62.15610036 8.47299401 -75.98841941 13.26143614 -89.25 22.1875 C-105.18141607 38.48099371 -106.46723342 63.53908996 -106.28515625 85.11523438 C-105.89213157 104.87700648 -102.22765813 123.72836498 -88.0625 138.4375 C-77.81368076 148.08344752 -67.67899383 151.58012501 -53.625 151.375 C-52.61131348 151.36412354 -51.59762695 151.35324707 -50.55322266 151.34204102 C-38.30947843 151.08126363 -26.94673851 148.62152691 -17 141 C-11.49154791 134.54293856 -8.61916197 126.77279148 -5.625 118.9375 C-4.09875 114.998125 -2.5725 111.05875 -1 107 C8.9 107 18.8 107 29 107 C26.76266049 127.13605558 18.52103236 146.35117578 3.4765625 160.34765625 C-16.85580907 176.19225211 -43.54950182 179.1221424 -68.47949219 176.765625 C-72.74768088 176.17287518 -76.86193629 175.18593954 -81 174 C-82.55654297 173.56494141 -82.55654297 173.56494141 -84.14453125 173.12109375 C-104.3538295 166.92080841 -119.26622513 155.09091928 -129.24609375 136.47265625 C-142.72056983 109.7937938 -143.5914712 69.75108784 -134.875 41.3125 C-126.84653999 19.32252448 -113.2575354 2.39205332 -92 -8 C-64.68040384 -20.50165027 -24.00216554 -19.21781429 0 0 Z " fill="#FAFAFA" transform="translate(1171,525)"/>
<path d="M0 0 C15.10476332 12.40563035 22.2542938 31.63132543 27 50 C19.59363664 54.66090108 12.58093567 55.18314329 4.0625 55.25 C3.30420898 55.25926514 2.54591797 55.26853027 1.76464844 55.27807617 C-3.75363093 55.24636907 -3.75363093 55.24636907 -6 53 C-6.58802731 51.26502834 -7.12111304 49.51124976 -7.625 47.75 C-11.94332538 34.52611715 -20.29845342 20.01689953 -32.58984375 12.7265625 C-37.65446003 10.1623467 -41.84710143 9.82183857 -47.4765625 9.76171875 C-48.564496 9.74961113 -48.564496 9.74961113 -49.67440796 9.73725891 C-51.20918414 9.72345352 -52.74399056 9.71271557 -54.27880859 9.70483398 C-55.83228698 9.69335667 -57.38572726 9.6729725 -58.93896484 9.64331055 C-71.49416913 9.40387079 -81.03083901 10.78657601 -90.96875 19.02734375 C-94.35184576 22.31285021 -96.72186025 25.89002273 -99 30 C-99.44085937 30.76441406 -99.88171875 31.52882813 -100.3359375 32.31640625 C-112.11266142 55.1204262 -111.35090399 89.55098997 -103.8984375 113.546875 C-98.6551565 128.22806179 -91.31518347 138.87114717 -77.125 145.7734375 C-69.52627548 148.75593687 -62.78097382 149.33910577 -54.6875 149.3125 C-53.71876953 149.32861328 -52.75003906 149.34472656 -51.75195312 149.36132812 C-40.12559401 149.3690842 -28.7247063 146.52001869 -19.9375 138.625 C-12.81877397 131.11467411 -8.99214201 120.79949319 -5.82421875 111.109375 C-5 109 -5 109 -3 107 C-0.56109451 106.51816745 1.78683896 106.154748 4.25 105.875 C4.95640625 105.79008301 5.6628125 105.70516602 6.390625 105.61767578 C13.27279348 104.85418521 20.07790215 104.805316 27 105 C24.59919021 124.24231127 17.74061483 140.18916057 4 154 C3.33613281 154.69867187 2.67226562 155.39734375 1.98828125 156.1171875 C-14.43775498 172.19905916 -38.03283391 175.44684451 -59.9765625 175.21875 C-82.23030876 174.65411324 -103.99284175 167.92938723 -119.640625 151.5078125 C-125.81638631 144.65768645 -130.32002908 136.84956335 -134.375 128.625 C-134.69694336 127.99062012 -135.01888672 127.35624023 -135.35058594 126.70263672 C-141.76184712 112.97439651 -141.47613871 98.08374228 -141.39111328 83.27514648 C-141.37501293 79.94017747 -141.39104489 76.60641703 -141.41015625 73.27148438 C-141.42848212 57.78569543 -140.39024745 44.45837364 -133.375 30.375 C-132.93623535 29.47692627 -132.4974707 28.57885254 -132.04541016 27.65356445 C-128.42031771 20.43401231 -124.34841364 14.09016444 -119 8 C-118.35546875 7.2575 -117.7109375 6.515 -117.046875 5.75 C-88.5526633 -24.82915401 -31.69956541 -25.2058539 0 0 Z " fill="#FAFAFA" transform="translate(2342,527)"/>
<path d="M0 0 C1.71533936 0.00616333 1.71533936 0.00616333 3.46533203 0.01245117 C27.73518068 0.17187312 47.76758331 2.83104801 66.375 20.125 C66.94605469 20.64191406 67.51710938 21.15882813 68.10546875 21.69140625 C76.83426064 30.65421401 85.04389933 49.04042549 85.5 61.5546875 C85.45875 62.40289062 85.4175 63.25109375 85.375 64.125 C75.70860714 66.09798648 66.25456066 67.63440538 56.375 68.125 C55.9625 66.95324219 55.55 65.78148437 55.125 64.57421875 C51.67044196 55.05897923 48.07804415 46.87371903 41.375 39.125 C40.83359375 38.46242187 40.2921875 37.79984375 39.734375 37.1171875 C32.49404499 28.99817667 21.78439669 24.9463446 11.1328125 23.90600586 C-3.40485416 23.14379676 -19.1834534 24.10705597 -30.625 34.125 C-36.04469504 39.11682438 -37.25098834 46.33080945 -37.94921875 53.4140625 C-38.21958927 61.37600826 -37.20229918 67.38480171 -32.36328125 73.796875 C-21.21985037 85.14504083 0.00345967 86.5360712 14.80078125 89.046875 C62.4882018 97.22343414 62.4882018 97.22343414 74.375 112.125 C80.57815519 123.0818294 81.99776841 134.31708232 79.7265625 146.64453125 C75.62605999 161.13647817 67.59114979 172.82341172 54.8125 180.875 C39.82221951 189.09486118 23.03129223 191.52080033 6.125 191.4375 C4.9505835 191.43331055 3.77616699 191.42912109 2.56616211 191.42480469 C-21.83280292 191.10974147 -42.20943986 184.49058723 -59.625 167.125 C-60.30691406 166.46628906 -60.98882813 165.80757812 -61.69140625 165.12890625 C-68.24158007 158.31496704 -74.73370193 147.12858535 -74.8125 137.5625 C-74.82667969 136.77746094 -74.84085938 135.99242187 -74.85546875 135.18359375 C-74.625 133.125 -74.625 133.125 -72.625 131.125 C-66.66480417 129.85687323 -60.69535997 129.86850592 -54.625 130.125 C-53.81289062 130.12242187 -53.00078125 130.11984375 -52.1640625 130.1171875 C-49.47309123 130.34679256 -47.93153664 130.69108844 -45.625 132.125 C-43.51239744 135.23202846 -41.91620676 138.42329966 -40.28125 141.8046875 C-34.67636629 153.04089304 -23.12418401 160.73368317 -11.625 165.125 C4.03838284 168.83458026 25.69147402 167.85597067 39.6875 159.25 C46.1103949 154.27504095 48.93513233 147.9722788 50.375 140.125 C51.13007318 132.35267061 51.76393151 125.06288489 46.7890625 118.62890625 C40.68891568 112.14118104 32.80611643 108.87940102 24.3125 106.6875 C23.52230469 106.47996094 22.73210937 106.27242188 21.91796875 106.05859375 C13.98746215 104.08783912 5.94405063 102.86443602 -2.125 101.625 C-49.56131941 94.2913896 -49.56131941 94.2913896 -63.9375 74.9375 C-70.23362397 64.78135453 -71.18255812 52.25582423 -68.96875 40.69921875 C-65.57263719 28.24192564 -57.91343206 17.73773037 -46.77294922 11.00585938 C-31.37620032 2.40146141 -17.54064144 -0.07626366 0 0 Z " fill="#FAFAFA" transform="translate(1102.625,135.875)"/>
<path d="M0 0 C23.91309218 -0.3065781 46.96956279 0.35254128 65.29052734 17.69042969 C77.52079577 29.81051551 87.29214243 46.11652645 88.8515625 63.58203125 C88.5390625 66.08203125 88.5390625 66.08203125 86.5390625 69.08203125 C81.82994216 70.65173803 77.03386834 70.70881107 72.1015625 71.01953125 C71.05162109 71.11298828 70.00167969 71.20644531 68.91992188 71.30273438 C66.01981805 71.47463345 63.40854704 71.53995846 60.5390625 71.08203125 C58.02734375 68.57421875 58.02734375 68.57421875 56.5390625 65.08203125 C56.1210437 64.16611206 56.1210437 64.16611206 55.69458008 63.23168945 C54.8049118 61.26108299 53.98283534 59.27052638 53.1640625 57.26953125 C46.66918142 41.99575913 38.47321987 32.93319768 23.2421875 26.04296875 C11.0616641 21.54877563 -3.76094765 23.06994624 -15.4609375 28.08203125 C-26.3191833 33.25525918 -33.77986813 38.69475141 -38.15625 50.16796875 C-38.64872966 51.59225171 -39.1248109 53.02229071 -39.5859375 54.45703125 C-39.83746582 55.23812256 -40.08899414 56.01921387 -40.34814453 56.82397461 C-48.4220055 82.90573741 -49.24202304 114.33725518 -36.4609375 139.08203125 C-30.29898003 150.75551734 -23.05693673 159.40670082 -10.47265625 164.2265625 C-4.87097827 165.71590353 0.97541061 165.41030512 6.7265625 165.39453125 C7.88220703 165.41064453 9.03785156 165.42675781 10.22851562 165.44335938 C23.02301112 165.45054326 34.36360061 163.06600206 44.28125 154.59375 C51.0118358 147.56673943 54.53203926 137.39650737 56.80078125 128.10546875 C57.70903275 125.61618687 58.3503867 124.60258496 60.5390625 123.08203125 C66.7506469 121.63843594 73.13146063 121.96832931 79.4765625 122.01953125 C81.07467773 122.02629883 81.07467773 122.02629883 82.70507812 122.03320312 C85.31646541 122.04491338 87.92773374 122.06131401 90.5390625 122.08203125 C88.06530313 143.88563131 77.14406518 162.13173429 60.8515625 176.39453125 C41.23769328 191.33843161 13.84118736 193.34304137 -9.83251953 190.3125 C-29.98912394 187.29997526 -48.16272629 179.02664064 -60.73632812 162.39501953 C-74.40995336 143.13889454 -76.96113179 125.26870016 -76.79711914 102.15087891 C-76.77348997 98.58993879 -76.77658052 95.02974899 -76.78320312 91.46875 C-76.748363 62.79294942 -71.99353488 41.43284781 -51.8359375 20.01953125 C-36.87529563 5.4483701 -20.47716822 0.48535049 0 0 Z " fill="#FAFAFA" transform="translate(1284.4609375,135.91796875)"/>
<path d="M0 0 C0 74.25 0 148.5 0 225 C-10.56 225 -21.12 225 -32 225 C-32 151.74 -32 78.48 -32 3 C-18.4494382 0.74157303 -18.4494382 0.74157303 -12.625 0.375 C-11.50351563 0.30023438 -10.38203125 0.22546875 -9.2265625 0.1484375 C-6.15389353 0.00707985 -3.07591882 0 0 0 Z " fill="#FBFBFB" transform="translate(2022,98)"/>
<path d="M0 0 C0 61.71 0 123.42 0 187 C-10.23 187 -20.46 187 -31 187 C-31 125.95 -31 64.9 -31 2 C-10 0 -10 0 0 0 Z " fill="#FBFBFB" transform="translate(2168,513)"/>
<path d="M0 0 C3.03712864 2.53787462 4.74070631 5.22211894 6 9 C6.42034523 14.46448794 5.60200688 18.16770151 3 23 C-1.96863947 27.96863947 -8.93668423 27.18247449 -15.5 27.1875 C-16.34175781 27.19974609 -17.18351562 27.21199219 -18.05078125 27.22460938 C-23.30885984 27.23703003 -27.52449387 27.03345147 -31.75 23.5625 C-35.02097704 19.4737787 -34.5187997 13.93955769 -34 9 C-32.66999806 4.47039339 -31.06350123 1.71670735 -27.125 -0.9375 C-18.06615459 -4.01750744 -8.75191625 -4.06016733 0 0 Z " fill="#FAFAFA" transform="translate(2167,464)"/>
</svg>
