<?xml version="1.0" standalone="no"?>
<!DOCTYPE svg PUBLIC "-//W3C//DTD SVG 20010904//EN"
 "http://www.w3.org/TR/2001/REC-SVG-20010904/DTD/svg10.dtd">
<svg version="1.0" xmlns="http://www.w3.org/2000/svg"
 width="1600.000000pt" height="507.000000pt" viewBox="0 0 1600.000000 507.000000"
 preserveAspectRatio="xMidYMid meet">

<g transform="translate(0.000000,507.000000) scale(0.100000,-0.100000)"
fill="#000000" stroke="none">
<path d="M3208 4977 c-42 -51 -107 -129 -144 -174 -37 -46 -71 -83 -74 -83 -3
0 -28 37 -55 83 -81 136 -107 177 -114 177 -10 0 -301 -498 -829 -1416 l-202
-351 -98 -84 c-860 -747 -1480 -1291 -1614 -1418 -55 -52 -75 -77 -66 -81 7
-4 93 -36 190 -70 98 -35 178 -68 178 -74 0 -6 -44 -65 -96 -131 -121 -151
-150 -193 -138 -204 5 -5 85 -21 178 -36 178 -28 216 -38 216 -55 0 -5 -47
-92 -105 -191 -58 -100 -105 -185 -105 -189 0 -4 550 -10 1222 -15 l1222 -7
171 -60 c93 -33 244 -86 335 -118 722 -255 1371 -480 1386 -480 10 0 2 77 -21
210 -26 155 -30 200 -16 200 4 0 89 -13 187 -30 228 -38 218 -38 210 4 -4 18
-24 79 -46 135 -43 111 -46 126 -27 138 6 4 91 10 188 13 l176 5 -115 200
c-63 110 -175 306 -250 435 -302 523 -549 953 -632 1100 l-87 155 -46 230
c-63 315 -132 696 -347 1900 -5 28 -16 88 -25 135 -8 47 -15 88 -15 93 0 20
-40 3 -85 -36 -148 -129 -259 -217 -266 -210 -4 5 -34 80 -67 169 -53 141 -88
225 -95 224 -1 -1 -36 -42 -79 -93z m-196 -527 c99 -173 224 -391 278 -485 54
-93 191 -332 305 -530 114 -198 258 -448 320 -555 62 -107 311 -537 552 -955
636 -1098 664 -1147 660 -1151 -2 -2 -1042 -3 -2310 -2 l-2307 3 51 90 c79
140 302 527 584 1015 298 516 871 1515 1035 1805 62 110 174 310 250 445 288
513 367 642 388 638 8 -2 95 -145 194 -318z"/>
<path d="M12555 4441 l-50 -6 -3 -697 -2 -698 95 0 95 0 0 705 0 705 -42 -2
c-24 0 -65 -4 -93 -7z"/>
<path d="M10551 4205 c-129 -36 -234 -128 -297 -259 -20 -42 -41 -76 -45 -76
-15 0 -13 34 16 288 l5 42 -100 0 -99 0 -3 -152 c-2 -84 -4 -404 -6 -710 l-3
-558 107 0 107 0 -7 143 c-8 171 -25 394 -32 422 -3 11 14 -16 38 -59 50 -92
123 -176 182 -211 51 -29 149 -55 209 -55 169 0 297 84 372 243 59 125 70 181
70 377 0 191 -9 239 -65 351 -86 170 -279 262 -449 214z m121 -156 c90 -45
141 -113 179 -239 19 -61 24 -98 24 -195 0 -227 -66 -369 -198 -425 -68 -30
-180 -25 -251 9 -72 35 -150 118 -175 186 -27 72 -45 236 -37 340 8 97 34 157
106 237 95 107 240 143 352 87z"/>
<path d="M11640 4209 c-105 -9 -177 -46 -265 -134 -119 -118 -159 -234 -159
-460 -1 -106 4 -157 18 -210 50 -189 154 -303 321 -355 90 -27 260 -38 336
-20 76 18 182 75 245 133 120 110 170 309 146 580 -13 138 -50 222 -142 320
-85 91 -173 135 -285 142 -44 3 -93 7 -110 8 -16 2 -64 0 -105 -4z m243 -164
c150 -74 228 -247 214 -475 -11 -160 -60 -291 -130 -344 -59 -45 -105 -59
-197 -58 -115 1 -182 26 -244 92 -93 100 -121 199 -113 400 8 187 29 254 106
331 71 71 123 90 231 86 58 -3 88 -10 133 -32z"/>
<path d="M6765 4201 c-56 -14 -143 -63 -184 -103 -55 -52 -83 -110 -89 -184
-7 -90 17 -152 79 -208 64 -58 153 -89 344 -121 215 -37 278 -61 315 -121 38
-61 16 -191 -42 -239 -71 -60 -280 -80 -370 -36 -66 31 -135 96 -163 151 -22
44 -27 48 -71 53 -25 2 -64 2 -85 0 -37 -5 -39 -8 -39 -40 0 -82 119 -231 224
-279 143 -65 367 -71 523 -12 173 64 270 280 190 424 -42 75 -150 125 -342
159 -326 59 -384 96 -372 241 9 113 61 162 197 183 174 28 311 -47 375 -205
14 -34 31 -60 41 -63 24 -5 137 9 153 18 11 7 10 18 -4 62 -50 153 -113 232
-234 291 -63 32 -65 32 -240 35 -97 1 -189 -1 -206 -6z"/>
<path d="M7934 4201 c-100 -24 -240 -145 -293 -252 -45 -92 -53 -156 -49 -379
l3 -196 39 -80 c71 -144 184 -229 342 -260 243 -46 466 29 570 192 30 46 84
184 84 213 0 12 -113 13 -164 2 -25 -5 -32 -14 -49 -66 -30 -91 -68 -139 -134
-172 -53 -26 -68 -28 -168 -28 -127 0 -165 14 -229 86 -126 139 -152 447 -57
661 42 93 151 151 281 151 140 0 228 -64 300 -218 l37 -81 74 4 c100 5 107 13
85 95 -23 84 -65 155 -130 220 -63 63 -121 94 -202 107 -68 11 -294 12 -340 1z"/>
<path d="M9140 4200 c-80 -17 -184 -76 -238 -135 -50 -55 -112 -179 -115 -233
-3 -35 32 -51 114 -55 l63 -2 12 41 c19 65 39 96 93 147 90 84 192 113 297 82
73 -21 134 -80 158 -151 16 -50 35 -167 36 -216 l0 -28 -167 0 c-93 0 -208 -6
-258 -14 -244 -37 -365 -144 -365 -322 0 -183 126 -295 332 -295 185 0 356
108 436 275 17 36 35 66 40 66 5 0 5 -21 1 -47 -4 -27 -11 -99 -15 -160 l-7
-113 103 0 103 0 -7 308 c-11 490 -28 609 -100 704 -44 58 -117 111 -181 133
-59 20 -266 29 -335 15z m418 -699 c-4 -76 -7 -83 -48 -137 -52 -67 -135 -136
-199 -167 -69 -33 -209 -32 -269 3 -84 47 -111 147 -66 235 52 100 183 141
463 144 l124 1 -5 -79z"/>
<path d="M13203 4190 c-83 -22 -100 -30 -165 -77 -54 -39 -104 -111 -141 -203
-43 -109 -44 -106 5 -118 24 -6 66 -14 94 -18 l52 -6 16 55 c24 82 92 169 158
200 141 66 291 31 364 -84 25 -41 46 -122 59 -230 l6 -57 -223 -5 c-239 -5
-292 -14 -391 -63 -121 -61 -176 -138 -184 -253 -20 -278 317 -412 592 -236
65 42 124 106 171 190 39 66 39 67 42 33 1 -18 -1 -85 -6 -148 -5 -63 -7 -118
-5 -122 2 -5 49 -8 104 -8 l101 0 -7 168 c-25 681 -25 679 -78 795 -47 102
-143 174 -267 197 -82 16 -216 11 -297 -10z m445 -674 c-7 -85 -38 -146 -108
-216 -210 -210 -530 -153 -494 88 10 68 66 121 159 152 89 30 149 37 314 39
l134 1 -5 -64z"/>
<path d="M13443 2160 c-29 -12 -43 -40 -43 -87 0 -67 16 -78 114 -78 100 0
116 10 123 77 5 40 2 47 -27 71 -26 23 -41 27 -88 26 -31 0 -67 -4 -79 -9z"/>
<path d="M6902 1860 c-28 -4 -86 -24 -128 -44 -129 -61 -223 -175 -268 -325
-22 -74 -22 -358 -1 -449 57 -240 240 -372 516 -372 161 0 303 51 380 138 48
54 114 186 124 250 l7 43 -91 -3 -92 -3 -33 -82 c-45 -111 -57 -127 -123 -159
-48 -24 -73 -29 -154 -32 -87 -4 -103 -2 -151 21 -87 40 -147 111 -184 217
-16 45 -19 83 -19 210 0 134 3 165 23 228 28 89 79 149 161 189 49 25 67 28
151 28 78 0 102 -4 136 -22 68 -36 139 -126 164 -208 14 -47 34 -65 71 -65 49
0 127 21 133 36 9 24 -32 138 -73 200 -65 99 -147 163 -245 188 -68 18 -236
27 -304 16z"/>
<path d="M8085 1860 c-27 -5 -86 -27 -131 -49 -172 -85 -258 -235 -279 -481
-8 -97 7 -249 32 -324 38 -117 130 -229 229 -279 88 -44 181 -61 307 -54 120
7 173 19 257 62 113 57 202 188 235 344 19 93 19 278 0 373 -42 204 -179 353
-365 396 -66 15 -227 22 -285 12z m268 -170 c80 -38 141 -117 183 -240 26 -77
27 -298 0 -385 -36 -118 -78 -179 -151 -218 -35 -19 -56 -22 -160 -22 -141 0
-171 11 -248 94 -64 69 -85 119 -98 240 -12 107 0 301 22 358 34 92 110 168
189 190 66 19 205 10 263 -17z"/>
<path d="M9450 1857 c-119 -34 -233 -156 -279 -299 -33 -101 -38 -23 -14 220
l6 62 -102 0 -101 0 0 -580 0 -580 93 0 94 0 9 398 c9 388 10 398 33 442 62
119 153 189 254 197 136 11 216 -76 237 -259 6 -46 10 -239 10 -430 l0 -348
100 0 100 0 0 303 c1 394 9 491 45 554 39 65 101 131 150 156 30 16 58 21 115
22 86 0 117 -16 164 -84 57 -81 58 -92 64 -538 l5 -413 98 0 99 0 0 288 c0
310 -13 540 -35 633 -28 121 -86 198 -184 242 -63 29 -176 28 -249 0 -112 -45
-189 -125 -248 -262 -18 -41 -35 -69 -38 -61 -2 8 -12 47 -21 85 -28 118 -87
195 -182 237 -56 25 -164 32 -223 15z"/>
<path d="M14241 1860 c-30 -4 -91 -27 -136 -49 -103 -51 -168 -119 -226 -235
-51 -103 -63 -188 -55 -379 5 -117 10 -148 32 -205 93 -233 259 -331 539 -319
81 3 126 11 170 27 147 56 249 171 290 327 8 31 15 61 15 67 0 13 -167 1 -184
-13 -8 -6 -19 -31 -24 -54 -6 -23 -24 -63 -40 -88 -54 -85 -128 -119 -256
-119 -109 0 -167 21 -232 85 -54 54 -87 122 -106 225 -14 75 -4 302 16 367 22
69 72 141 124 178 42 29 48 30 167 33 108 3 127 1 163 -17 61 -31 142 -140
167 -224 10 -35 17 -43 41 -45 42 -5 129 7 149 21 15 12 15 17 -5 77 -60 174
-167 286 -310 323 -72 19 -230 28 -299 17z"/>
<path d="M12667 1844 c-56 -20 -159 -96 -209 -154 -24 -27 -60 -80 -81 -117
l-38 -68 5 80 c3 44 9 119 12 168 l6 87 -101 0 -101 0 0 -580 0 -580 100 0
100 0 0 396 0 396 44 56 c115 150 226 208 359 188 64 -10 129 -69 158 -144 25
-65 34 -216 38 -641 1 -135 3 -247 5 -249 3 -2 46 0 97 4 l92 7 -7 366 c-8
468 -22 593 -77 685 -22 39 -80 82 -136 102 -50 18 -216 17 -266 -2z"/>
<path d="M13488 1843 l-68 -4 0 -579 0 -580 95 0 95 0 0 585 0 585 -27 -2
c-16 -1 -58 -3 -95 -5z"/>
<path d="M15361 1839 c-135 -24 -263 -147 -321 -310 -12 -35 -15 -59 -9 -70 8
-16 53 -31 135 -44 l40 -6 17 58 c30 103 121 200 211 224 59 16 173 6 223 -19
80 -41 116 -112 137 -267 3 -22 8 -54 12 -71 l6 -32 -218 -5 c-184 -4 -231 -8
-293 -26 -97 -29 -144 -54 -202 -108 -65 -61 -89 -115 -89 -203 0 -181 127
-290 340 -290 193 0 317 76 424 262 l48 83 -7 -135 c-3 -74 -9 -145 -12 -157
-4 -19 0 -23 34 -29 21 -4 64 -8 97 -8 l58 -1 -1 335 c-3 487 -10 545 -86 666
-41 63 -99 114 -161 138 -57 22 -291 31 -383 15z m428 -628 c16 -9 21 -21 21
-54 0 -67 -38 -134 -122 -213 -102 -96 -149 -118 -263 -122 -107 -4 -142 10
-192 76 -27 35 -33 53 -33 92 0 123 79 187 275 226 80 16 281 12 314 -5z"/>
<path d="M10903 1438 c6 -447 13 -515 67 -625 56 -113 129 -148 295 -141 83 4
110 10 160 33 83 39 200 158 244 248 19 37 36 66 38 63 2 -2 0 -55 -6 -117 -6
-63 -11 -138 -11 -166 l0 -53 100 0 100 0 0 580 0 580 -100 0 -100 0 0 -391 0
-391 -45 -58 c-113 -147 -257 -215 -383 -180 -66 17 -127 83 -142 151 -7 34
-14 208 -17 462 l-6 407 -100 0 -99 0 5 -402z"/>
</g>
</svg>
