<svg width="200" height="89" viewBox="0 0 2000 893" fill="none" xmlns="http://www.w3.org/2000/svg">
<g clip-path="url(#clip0_4315_952)">
<path d="M964.029 895.684C941.172 895.684 918.314 895.684 892.946 894.379C773.682 881.948 656.456 874.346 540.292 858.81C392.813 839.085 249.263 801.731 111.153 744.876C42.0682 716.436 8.57057 664.447 7.52625 591.63C6.20267 499.342 6.26706 407.008 7.50254 314.717C8.47607 241.994 41.2827 189.652 110.485 161.044C221.043 115.34 335.576 83.6088 452.794 61.2622C675.586 18.7887 900.41 4.83206 1126.94 13.5847C1305.13 20.4699 1481.42 40.9085 1655 82.5297C1738.31 102.507 1819.76 128.224 1899.04 160.978C1957.24 185.021 1992.22 226.226 2000.36 289.277C2000.62 291.279 2002.48 293.073 2003.6 294.964C2003.6 296.563 2003.6 298.162 2002.61 302.089C2001.1 307.329 2000.12 310.241 2000.12 313.154C2000.03 405.779 1999.98 498.404 2000.17 591.028C2000.18 595.46 2002.41 599.887 2003.6 604.317C2003.6 607.015 2003.6 609.712 2002.36 614.368C1991.03 683.38 1952.33 726.12 1889.34 748.592C1860.65 758.829 1832.54 770.773 1803.65 780.381C1608.7 845.215 1407.41 875.074 1203.17 888.544C1173.79 890.482 1144.46 893.282 1115.11 895.684C1092.25 895.684 1069.39 895.684 1043.68 894.754C1015.23 894.445 989.628 895.064 964.029 895.684ZM504.856 584.351C505.661 577.952 507.128 571.556 507.163 565.153C507.379 525.824 507.132 486.492 507.414 447.163C507.46 440.887 509.4 434.624 511.524 430.694C532.831 470.121 555.845 508.746 574.866 549.247C588.279 577.806 606.64 589.36 637.995 586.247C664.994 583.566 672.018 578.822 672.049 551.765C672.132 479.907 672.097 408.049 672.035 336.191C672.031 331.047 671.431 325.903 671.13 321.093C648.104 321.093 626.787 321.093 603.522 321.093C603.522 375.688 603.522 429.324 603.522 484.487C579.387 440.585 554.641 399.581 533.999 356.605C520.38 328.25 502.528 316.349 470.985 319.565C443.571 322.36 436.89 326.449 436.85 353.693C436.744 425.551 436.791 497.409 436.862 569.267C436.867 574.473 437.554 579.678 438.001 585.966C460.355 585.966 481.277 585.966 504.856 584.351ZM1359.76 390.937C1359.77 432.075 1356.41 473.565 1360.67 514.259C1365.37 559.118 1389.79 581.349 1434.29 587.292C1458.38 590.509 1483.45 590.942 1507.59 588.243C1556.23 582.805 1578.19 561.197 1587.53 512.471C1595.49 470.901 1595.34 429.001 1586.4 387.533C1576.88 343.424 1552.43 321.488 1507.31 317.114C1488.36 315.277 1469.08 315.222 1450.03 316.182C1397.99 318.805 1374.62 337.95 1359.76 390.937ZM1227.67 471.243C1230.9 473.507 1235.77 475.134 1236.96 478.191C1238.58 482.363 1237.39 487.624 1237.39 492.419C1237.4 523.276 1237.4 554.134 1237.4 584.276C1263.24 584.276 1286.23 584.276 1310.11 584.276C1310.11 542.719 1310.11 502.599 1310.1 462.479C1310.09 424.122 1310.07 385.766 1310.04 347.41C1310.03 333.258 1305.25 321.862 1289.53 320.836C1272.49 319.723 1255.32 320.584 1236.74 320.584C1236.74 353.929 1236.74 385.425 1236.74 416.788C1210.35 416.788 1185.48 416.788 1158.85 416.788C1158.85 384.317 1158.85 352.887 1158.85 321.329C1134.06 321.329 1111.09 321.329 1087.03 321.329C1087.03 402.732 1086.56 482.948 1087.82 563.137C1087.94 570.366 1098.31 582.326 1105.41 583.579C1122.51 586.595 1140.51 584.556 1159.75 584.556C1159.75 545.991 1159.75 509.086 1159.75 471.238C1182.34 471.238 1203.26 471.238 1227.67 471.243ZM271.831 533.984C246.239 531.836 239.862 526.003 236.259 500.521C235.175 492.852 234.657 485.043 234.63 477.296C234.475 434.189 234.744 391.079 234.463 347.973C234.333 327.862 227.405 320.843 207.665 320.242C192.88 319.792 178.07 320.153 161.863 320.153C161.863 362.986 161.434 404.155 162.023 445.31C162.381 470.381 162.524 495.678 165.958 520.43C170.807 555.388 191.947 579.296 226.857 584.77C254.854 589.16 284.218 590.506 312.307 587.318C355.539 582.412 375.89 561.311 382.517 518.205C386.125 494.737 385.282 470.509 385.52 446.615C385.936 404.922 385.636 363.222 385.636 320.136C373.679 320.136 363.626 320.135 353.572 320.136C316.826 320.142 312.946 324.092 312.942 361.491C312.938 404.599 313.391 447.714 312.775 490.813C312.327 522.161 303.099 531.946 271.831 533.984ZM1637.27 401.079C1637.27 453.16 1637.16 505.242 1637.32 557.322C1637.39 577.142 1644.51 584.831 1663.85 585.611C1678.68 586.21 1693.55 585.73 1710.54 585.73C1710.54 554.213 1710.54 524.034 1710.54 492.686C1735.24 492.686 1757.9 493.865 1780.39 492.431C1822.19 489.766 1841.63 472.04 1846.2 430.96C1848.36 411.598 1847.12 391.573 1845.07 372.095C1842.18 344.551 1825.32 326.936 1798.62 321.845C1745.37 311.692 1691.86 316.371 1637.27 320.323C1637.27 347.358 1637.27 372.42 1637.27 401.079ZM1041.26 496.977C1038.39 465.218 1019.29 446.271 991.399 434.704C970.967 426.232 950.247 418.452 929.671 410.324C919.279 406.218 908.898 401.304 910.849 387.729C913.005 372.721 925.772 374.365 936.242 374.246C966.696 373.902 997.156 374.124 1029.38 374.124C1030.87 358.483 1032.32 343.278 1033.73 328.532C997.796 313.886 912.33 311.068 878.252 322.528C861.964 328.005 849.026 337.434 844.029 354.163C831.05 397.62 834.929 446.501 890.992 468.286C899.356 471.536 907.666 474.927 915.968 478.33C929.804 484 944.359 488.474 957.097 496.011C962.822 499.399 967.927 509.123 967.577 515.665C967.336 520.174 957.79 526.086 951.42 527.88C943.62 530.077 934.794 528.723 926.412 528.738C899.693 528.786 872.974 528.756 845.184 528.756C843.862 545.349 842.547 561.848 841.266 577.938C881.758 590.26 948.567 593.84 987.237 586.382C1013.38 581.339 1033.54 568.892 1038.95 541.078C1041.54 527.743 1040.81 513.762 1041.26 496.977ZM794.969 419.065C794.954 395.113 795.314 371.152 794.804 347.21C794.402 328.287 787.124 320.923 768.72 320.267C753.945 319.739 739.136 320.16 723.096 320.16C723.096 402.606 722.951 483.305 723.236 564.003C723.285 577.786 732.608 584.58 745.378 585.241C761.332 586.068 777.363 585.44 794.969 585.44C794.969 530.143 794.969 476.403 794.969 419.065Z" fill="#FEC901"/>
<path d="M2003.6 602.63C2002.4 599.887 2000.18 595.46 2000.17 591.028C1999.98 498.403 2000.03 405.778 2000.12 313.153C2000.12 310.24 2001.1 307.329 2002.61 303.287C2003.6 401.753 2003.6 501.349 2003.6 602.63Z" fill="#FDD640"/>
<path d="M502.199 585.966C481.277 585.966 460.354 585.966 438 585.966C437.553 579.678 436.866 574.473 436.861 569.267C436.79 497.409 436.743 425.551 436.849 353.693C436.889 326.449 443.57 322.36 470.984 319.565C502.527 316.349 520.379 328.25 533.998 356.605C554.64 399.581 579.386 440.585 603.521 484.487C603.521 429.324 603.521 375.688 603.521 321.093C626.786 321.093 648.103 321.093 671.129 321.093C671.431 325.903 672.03 331.047 672.035 336.191C672.096 408.049 672.131 479.907 672.048 551.765C672.017 578.822 664.993 583.566 637.995 586.247C606.64 589.36 588.278 577.806 574.865 549.247C555.844 508.746 532.83 470.121 510.998 428.224C508.644 421.665 506.814 417.574 504.984 413.484C504.056 413.962 503.128 414.44 502.199 414.918C502.199 471.934 502.199 528.95 502.199 585.966Z" fill="#084A95"/>
<path d="M1360.01 389.443C1374.62 337.95 1397.99 318.805 1450.03 316.181C1469.08 315.221 1488.36 315.276 1507.31 317.114C1552.43 321.488 1576.88 343.424 1586.4 387.533C1595.34 429.001 1595.49 470.9 1587.52 512.471C1578.19 561.196 1556.23 582.805 1507.59 588.243C1483.45 590.942 1458.38 590.509 1434.29 587.292C1389.78 581.349 1365.36 559.118 1360.67 514.258C1356.41 473.565 1359.77 432.075 1360.01 389.443ZM1499.16 527.416C1503.16 520.232 1510.37 513.164 1510.63 505.843C1511.91 470.837 1513.34 435.604 1510.64 400.768C1508.93 378.668 1495.47 371.065 1472.88 371.249C1450.67 371.43 1437.79 379.678 1435.74 401.753C1432.89 432.502 1431.28 463.885 1434.2 494.517C1437.79 532.334 1460.1 543.045 1499.16 527.416Z" fill="#064A95"/>
<path d="M1225.93 471.24C1203.26 471.238 1182.34 471.238 1159.74 471.238C1159.74 509.086 1159.74 545.99 1159.74 584.555C1140.51 584.555 1122.51 586.594 1105.41 583.579C1098.31 582.325 1087.93 570.366 1087.82 563.137C1086.56 482.948 1087.03 402.731 1087.03 321.328C1111.09 321.328 1134.06 321.328 1158.85 321.328C1158.85 352.886 1158.85 384.317 1158.85 416.788C1185.48 416.788 1210.34 416.788 1236.74 416.788C1236.74 385.425 1236.74 353.929 1236.74 320.583C1255.32 320.583 1272.49 319.723 1289.53 320.835C1305.24 321.862 1310.03 333.258 1310.04 347.41C1310.07 385.766 1310.09 424.122 1310.1 462.478C1310.11 502.598 1310.11 542.718 1310.11 584.275C1286.23 584.275 1263.24 584.275 1237.4 584.275C1237.4 554.133 1237.4 523.276 1237.39 492.418C1237.39 487.624 1238.57 482.362 1236.96 478.19C1235.77 475.133 1230.9 473.507 1225.93 471.24Z" fill="#054996"/>
<path d="M273.425 533.984C303.097 531.946 312.326 522.161 312.774 490.813C313.389 447.714 312.937 404.599 312.941 361.491C312.945 324.092 316.825 320.142 353.571 320.136C363.624 320.135 373.678 320.136 385.635 320.136C385.635 363.221 385.934 404.922 385.519 446.615C385.281 470.509 386.124 494.737 382.516 518.205C375.889 561.311 355.537 582.412 312.306 587.318C284.216 590.506 254.853 589.159 226.855 584.77C191.945 579.296 170.806 555.387 165.956 520.43C162.522 495.678 162.38 470.381 162.021 445.31C161.433 404.155 161.862 362.986 161.862 320.153C178.069 320.153 192.878 319.792 207.663 320.242C227.403 320.843 234.331 327.862 234.462 347.972C234.742 391.079 234.474 434.188 234.628 477.296C234.656 485.043 235.174 492.852 236.258 500.52C239.861 526.003 246.238 531.836 273.425 533.984Z" fill="#034996"/>
<path d="M1637.26 399.281C1637.26 372.42 1637.26 347.358 1637.26 320.322C1691.85 316.371 1745.37 311.692 1798.62 321.844C1825.32 326.935 1842.18 344.55 1845.07 372.095C1847.12 391.573 1848.36 411.597 1846.2 430.959C1841.63 472.04 1822.19 489.765 1780.39 492.431C1757.9 493.865 1735.24 492.685 1710.53 492.685C1710.53 524.034 1710.53 554.212 1710.53 585.73C1693.55 585.73 1678.68 586.209 1663.85 585.611C1644.51 584.831 1637.39 577.142 1637.32 557.322C1637.16 505.241 1637.27 453.16 1637.26 399.281ZM1711.39 437.095C1725.36 437.871 1739.33 439.352 1753.29 439.212C1765.91 439.086 1773.11 431.401 1773.87 418.839C1774.45 409.343 1776.26 398.909 1773.16 390.504C1770.33 382.847 1762.48 373.273 1755.34 371.781C1741.26 368.841 1726.13 370.915 1710.82 370.915C1710.82 392.872 1710.82 413.196 1711.39 437.095Z" fill="#094B95"/>
<path d="M1041.43 498.525C1040.81 513.762 1041.54 527.742 1038.95 541.077C1033.54 568.891 1013.38 581.338 987.236 586.381C948.565 593.84 881.757 590.259 841.264 577.937C842.546 561.848 843.86 545.349 845.182 528.756C872.972 528.756 899.692 528.785 926.41 528.738C934.793 528.723 943.619 530.077 951.419 527.88C957.789 526.086 967.335 520.173 967.576 515.665C967.925 509.123 962.821 499.398 957.096 496.011C944.358 488.474 929.803 484 915.967 478.329C907.664 474.926 899.355 471.535 890.991 468.286C834.928 446.501 831.049 397.62 844.028 354.163C849.025 337.433 861.962 328.005 878.251 322.528C912.329 311.068 997.795 313.885 1033.73 328.531C1032.32 343.277 1030.87 358.483 1029.38 374.124C997.155 374.124 966.694 373.902 936.241 374.246C925.771 374.364 913.004 372.72 910.847 387.729C908.897 401.304 919.277 406.218 929.67 410.323C950.246 418.452 970.966 426.231 991.398 434.704C1019.29 446.27 1038.38 465.217 1041.43 498.525Z" fill="#064A95"/>
<path d="M794.968 420.864C794.968 476.402 794.968 530.143 794.968 585.44C777.362 585.44 761.332 586.068 745.377 585.241C732.608 584.58 723.284 577.786 723.235 564.003C722.95 483.305 723.096 402.606 723.096 320.16C739.136 320.16 753.944 319.739 768.719 320.267C787.123 320.923 794.401 328.287 794.803 347.21C795.313 371.152 794.953 395.112 794.968 420.864Z" fill="#034996"/>
<path d="M503.527 585.159C502.199 528.95 502.199 471.934 502.199 414.918C503.127 414.44 504.055 413.962 504.984 413.484C506.813 417.575 508.643 421.665 510.468 427.055C509.399 434.625 507.459 440.887 507.413 447.163C507.13 486.492 507.378 525.824 507.162 565.153C507.127 571.557 505.66 577.952 503.527 585.159Z" fill="#CFA84C"/>
<path d="M1497.92 528.193C1460.1 543.045 1437.79 532.334 1434.2 494.517C1431.28 463.885 1432.89 432.502 1435.74 401.753C1437.79 379.678 1450.67 371.43 1472.88 371.249C1495.47 371.065 1508.93 378.669 1510.64 400.768C1513.34 435.604 1511.91 470.837 1510.63 505.844C1510.37 513.164 1503.17 520.232 1497.92 528.193Z" fill="#FCC803"/>
<path d="M1711.1 435.307C1710.82 413.196 1710.82 392.873 1710.82 370.915C1726.13 370.915 1741.26 368.842 1755.34 371.781C1762.48 373.273 1770.33 382.847 1773.16 390.504C1776.26 398.909 1774.45 409.343 1773.87 418.839C1773.11 431.401 1765.91 439.087 1753.29 439.213C1739.33 439.352 1725.36 437.871 1711.1 435.307Z" fill="#FDC801"/>
</g>
<defs>
<clipPath id="clip0_4315_952">
<rect width="2000" height="892.086" fill="white"/>
</clipPath>
</defs>
</svg>
